<svg width="36" height="30" viewBox="0 0 36 30" fill="none" xmlns="http://www.w3.org/2000/svg">
<g id="mc_vrt_pos">
<g id="Layer 2">
<g id="Layer 1">
<path id="Vector" d="M8.91424 25.8661V24.3917C8.92282 24.2677 8.90493 24.1433 8.86176 24.0268C8.81859 23.9102 8.75113 23.8043 8.66389 23.7159C8.57664 23.6275 8.47161 23.5588 8.35578 23.5143C8.23996 23.4699 8.116 23.4506 7.99217 23.4579C7.83009 23.4472 7.66812 23.4804 7.52318 23.5539C7.37824 23.6274 7.25565 23.7385 7.1682 23.8756C7.08848 23.7426 6.97441 23.6336 6.83803 23.56C6.70164 23.4865 6.54799 23.4512 6.39326 23.4579C6.25839 23.4511 6.12408 23.4797 6.00363 23.5409C5.88319 23.6021 5.7808 23.6938 5.70661 23.8068V23.5169H5.19653V25.8661H5.71152V24.5735C5.70057 24.4932 5.70746 24.4114 5.7317 24.3341C5.75595 24.2567 5.79695 24.1857 5.85177 24.1261C5.9066 24.0664 5.97389 24.0197 6.04885 23.9891C6.1238 23.9586 6.20456 23.945 6.28536 23.9494C6.62378 23.9494 6.79544 24.1705 6.79544 24.5686V25.8759H7.31043V24.5735C7.29992 24.4933 7.30713 24.4117 7.33154 24.3345C7.35595 24.2574 7.39697 24.1865 7.4517 24.127C7.50643 24.0675 7.57354 24.0207 7.64829 23.99C7.72303 23.9593 7.80359 23.9454 7.88427 23.9494C8.2325 23.9494 8.39926 24.1705 8.39926 24.5686V25.8759L8.91424 25.8661ZM16.5336 23.5169H15.6949V22.8042H15.1799V23.5169H14.714V23.9838H15.1897V25.065C15.1897 25.6105 15.4006 25.9349 16.0039 25.9349C16.2293 25.9357 16.4503 25.8726 16.6415 25.7531L16.4944 25.3157C16.3576 25.3974 16.2023 25.4431 16.0431 25.4484C15.7979 25.4484 15.7047 25.2911 15.7047 25.0552V23.9838H16.5385L16.5336 23.5169ZM20.884 23.4579C20.7596 23.4542 20.6366 23.4843 20.5278 23.5448C20.4191 23.6053 20.3286 23.6942 20.266 23.8019V23.5169H19.7608V25.8661H20.2709V24.549C20.2709 24.1607 20.4377 23.9444 20.7614 23.9444C20.8705 23.943 20.9788 23.963 21.0802 24.0034L21.2371 23.512C21.1206 23.4702 20.9979 23.4486 20.8742 23.4481L20.884 23.4579ZM14.3069 23.7036C14.0182 23.5316 13.6862 23.4463 13.3505 23.4579C12.757 23.4579 12.3696 23.7429 12.3696 24.2098C12.3696 24.5932 12.654 24.8291 13.1788 24.9028L13.4241 24.9372C13.7036 24.9765 13.836 25.0503 13.836 25.183C13.836 25.3648 13.6497 25.468 13.3014 25.468C13.0213 25.4761 12.7467 25.3896 12.5216 25.2223L12.2764 25.6204C12.5735 25.8283 12.9294 25.9351 13.2916 25.9251C13.9685 25.9251 14.3608 25.6056 14.3608 25.1584C14.3608 24.7111 14.0518 24.5293 13.5418 24.4556L13.2965 24.4212C13.0758 24.3917 12.8993 24.3475 12.8993 24.1902C12.8993 24.0329 13.066 23.915 13.3456 23.915C13.604 23.918 13.8573 23.9873 14.0813 24.1165L14.3069 23.7036ZM27.9687 23.4579C27.8444 23.4542 27.7213 23.4843 27.6126 23.5448C27.5038 23.6053 27.4134 23.6942 27.3508 23.8019V23.5169H26.8456V25.8661H27.3557V24.549C27.3557 24.1607 27.5224 23.9444 27.8461 23.9444C27.9552 23.943 28.0636 23.963 28.1649 24.0034L28.3219 23.512C28.2054 23.4702 28.0827 23.4486 27.9589 23.4481L27.9687 23.4579ZM21.3965 24.6866C21.3905 24.8517 21.4189 25.0162 21.4799 25.1697C21.5409 25.3231 21.6333 25.4621 21.751 25.5778C21.8687 25.6934 22.0092 25.7832 22.1636 25.8413C22.3179 25.8994 22.4826 25.9246 22.6472 25.9153C22.9535 25.9309 23.2545 25.8309 23.4908 25.6351L23.2456 25.2223C23.0693 25.357 22.8542 25.4311 22.6325 25.4336C22.444 25.4183 22.2681 25.3325 22.1398 25.1931C22.0116 25.0538 21.9404 24.8712 21.9404 24.6817C21.9404 24.4921 22.0116 24.3095 22.1398 24.1702C22.2681 24.0308 22.444 23.945 22.6325 23.9297C22.8542 23.9322 23.0693 24.0063 23.2456 24.141L23.4908 23.7282C23.2545 23.5324 22.9535 23.4324 22.6472 23.4481C22.4826 23.4387 22.3179 23.4639 22.1636 23.522C22.0092 23.5801 21.8687 23.6699 21.751 23.7855C21.6333 23.9012 21.5409 24.0402 21.4799 24.1936C21.4189 24.3471 21.3905 24.5117 21.3965 24.6767V24.6866ZM26.1736 24.6866V23.5169H25.6636V23.8019C25.5769 23.6902 25.4651 23.6008 25.3371 23.541C25.2092 23.4812 25.0689 23.4527 24.9279 23.4579C24.6027 23.4579 24.2908 23.5873 24.0608 23.8178C23.8309 24.0482 23.7017 24.3607 23.7017 24.6866C23.7017 25.0124 23.8309 25.325 24.0608 25.5554C24.2908 25.7858 24.6027 25.9153 24.9279 25.9153C25.0689 25.9205 25.2092 25.892 25.3371 25.8322C25.4651 25.7724 25.5769 25.6829 25.6636 25.5712V25.8563H26.1736V24.6866ZM24.2756 24.6866C24.2837 24.5483 24.332 24.4154 24.4145 24.3043C24.4971 24.1932 24.6103 24.1087 24.7401 24.0612C24.87 24.0137 25.0109 24.0053 25.1454 24.0371C25.28 24.0688 25.4024 24.1393 25.4975 24.2398C25.5925 24.3404 25.6562 24.4666 25.6806 24.6029C25.705 24.7393 25.6891 24.8798 25.6348 25.0072C25.5806 25.1346 25.4903 25.2433 25.3751 25.32C25.26 25.3966 25.125 25.4378 24.9867 25.4385C24.8896 25.4398 24.7933 25.4208 24.7039 25.383C24.6144 25.3451 24.5338 25.2891 24.467 25.2185C24.4002 25.1478 24.3487 25.0641 24.3157 24.9726C24.2828 24.881 24.2691 24.7837 24.2756 24.6866ZM18.1202 23.4579C17.795 23.4625 17.485 23.5963 17.2582 23.8299C17.0315 24.0636 16.9067 24.3779 16.9112 24.7038C16.9158 25.0296 17.0493 25.3403 17.2825 25.5675C17.5157 25.7947 17.8294 25.9198 18.1546 25.9153C18.5074 25.9334 18.8544 25.8195 19.1281 25.5958L18.8829 25.2174C18.6893 25.373 18.4494 25.4595 18.2012 25.4631C18.0326 25.4776 17.8649 25.4257 17.734 25.3183C17.603 25.2109 17.519 25.0566 17.4998 24.8881H19.2409C19.2409 24.8242 19.2409 24.7603 19.2409 24.6915C19.2409 23.9543 18.7848 23.4628 18.1276 23.4628L18.1202 23.4579ZM18.1202 23.915C18.1966 23.9133 18.2725 23.9268 18.3436 23.9546C18.4147 23.9823 18.4797 24.0239 18.5348 24.0768C18.5899 24.1298 18.6341 24.1931 18.6648 24.2631C18.6955 24.3332 18.7121 24.4086 18.7137 24.4851H17.4875C17.4964 24.3273 17.5666 24.1793 17.683 24.0728C17.7994 23.9662 17.9528 23.9096 18.1104 23.915H18.1202ZM30.8993 24.6915V22.5732H30.4088V23.8019C30.3222 23.6902 30.2103 23.6008 30.0824 23.541C29.9544 23.4812 29.8142 23.4527 29.6731 23.4579C29.3479 23.4579 29.036 23.5873 28.8061 23.8178C28.5761 24.0482 28.4469 24.3607 28.4469 24.6866C28.4469 25.0124 28.5761 25.325 28.8061 25.5554C29.036 25.7858 29.3479 25.9153 29.6731 25.9153C29.8142 25.9205 29.9544 25.892 30.0824 25.8322C30.2103 25.7724 30.3222 25.6829 30.4088 25.5712V25.8563H30.8993V24.6915ZM31.7502 25.5245C31.7821 25.5241 31.8138 25.53 31.8434 25.5417C31.8716 25.5532 31.8973 25.5699 31.9194 25.5909C31.941 25.6121 31.9584 25.6371 31.9709 25.6646C31.9833 25.6933 31.9897 25.7242 31.9897 25.7555C31.9897 25.7868 31.9833 25.8177 31.9709 25.8464C31.9584 25.874 31.941 25.899 31.9194 25.9202C31.8973 25.9411 31.8716 25.9578 31.8434 25.9693C31.814 25.9823 31.7823 25.989 31.7502 25.989C31.7037 25.9886 31.6583 25.975 31.6192 25.9498C31.5801 25.9246 31.549 25.8887 31.5295 25.8464C31.5172 25.8177 31.5109 25.7868 31.5109 25.7555C31.5109 25.7243 31.5172 25.6933 31.5295 25.6646C31.542 25.6371 31.5595 25.6121 31.581 25.5909C31.6031 25.5699 31.6289 25.5532 31.657 25.5417C31.689 25.529 31.7232 25.5231 31.7576 25.5245H31.7502ZM31.7502 25.9398C31.7747 25.94 31.7989 25.9349 31.8213 25.9251C31.8424 25.9156 31.8616 25.9023 31.8777 25.8858C31.9084 25.8522 31.9254 25.8084 31.9254 25.7629C31.9254 25.7174 31.9084 25.6736 31.8777 25.64C31.8616 25.6234 31.8425 25.6101 31.8213 25.6007C31.7989 25.5909 31.7747 25.5859 31.7502 25.586C31.7258 25.5861 31.7016 25.5911 31.6791 25.6007C31.6571 25.6098 31.6371 25.6231 31.6202 25.64C31.5896 25.6736 31.5725 25.7174 31.5725 25.7629C31.5725 25.8084 31.5896 25.8522 31.6202 25.8858C31.6371 25.9026 31.6571 25.916 31.6791 25.9251C31.7038 25.9358 31.7306 25.9408 31.7576 25.9398H31.7502ZM31.7649 25.6474C31.7878 25.6463 31.8104 25.6532 31.8287 25.6671C31.8362 25.6733 31.8421 25.6812 31.846 25.6902C31.8498 25.6992 31.8514 25.7089 31.8508 25.7187C31.8511 25.7268 31.8498 25.735 31.8468 25.7426C31.8439 25.7502 31.8394 25.7571 31.8336 25.7629C31.8194 25.7758 31.8012 25.7836 31.7821 25.785L31.8532 25.8661H31.7968L31.7306 25.785H31.7085V25.8661H31.6619V25.6499L31.7649 25.6474ZM31.711 25.6892V25.7481H31.7649C31.7745 25.751 31.7848 25.751 31.7944 25.7481C31.7961 25.7447 31.797 25.7409 31.797 25.7371C31.797 25.7333 31.7961 25.7295 31.7944 25.726C31.7961 25.7226 31.797 25.7188 31.797 25.715C31.797 25.7111 31.7961 25.7073 31.7944 25.7039C31.7848 25.701 31.7745 25.701 31.7649 25.7039L31.711 25.6892ZM29.0134 24.6915C29.0216 24.5532 29.0699 24.4203 29.1524 24.3092C29.235 24.1981 29.3481 24.1136 29.478 24.0661C29.6079 24.0186 29.7488 24.0102 29.8833 24.042C30.0179 24.0737 30.1402 24.1442 30.2353 24.2448C30.3304 24.3453 30.3941 24.4715 30.4185 24.6079C30.4429 24.7442 30.427 24.8847 30.3727 25.0121C30.3184 25.1395 30.2282 25.2482 30.113 25.3249C29.9978 25.4015 29.8628 25.4427 29.7246 25.4434C29.6275 25.4447 29.5312 25.4258 29.4418 25.3879C29.3523 25.35 29.2716 25.294 29.2048 25.2234C29.1381 25.1527 29.0866 25.069 29.0536 24.9775C29.0207 24.886 29.007 24.7886 29.0134 24.6915ZM11.7908 24.6915V23.5169H11.2807V23.8019C11.1941 23.6902 11.0822 23.6008 10.9543 23.541C10.8264 23.4812 10.6861 23.4527 10.545 23.4579C10.2198 23.4579 9.90796 23.5873 9.67801 23.8178C9.44806 24.0482 9.31888 24.3607 9.31888 24.6866C9.31888 25.0124 9.44806 25.325 9.67801 25.5554C9.90796 25.7858 10.2198 25.9153 10.545 25.9153C10.6861 25.9205 10.8264 25.892 10.9543 25.8322C11.0822 25.7724 11.1941 25.6829 11.2807 25.5712V25.8563H11.7908V24.6915ZM9.89272 24.6915C9.90085 24.5532 9.94917 24.4203 10.0317 24.3092C10.1143 24.1981 10.2274 24.1136 10.3573 24.0661C10.4872 24.0186 10.628 24.0102 10.7626 24.042C10.8972 24.0737 11.0195 24.1442 11.1146 24.2448C11.2097 24.3453 11.2734 24.4715 11.2978 24.6079C11.3222 24.7442 11.3063 24.8847 11.252 25.0121C11.1977 25.1395 11.1074 25.2482 10.9923 25.3249C10.8771 25.4015 10.7421 25.4427 10.6039 25.4434C10.5064 25.4454 10.4095 25.4269 10.3195 25.3894C10.2295 25.3518 10.1482 25.2959 10.0809 25.2252C10.0136 25.1545 9.96163 25.0705 9.9284 24.9787C9.89516 24.8868 9.88134 24.789 9.88781 24.6915H9.89272Z" fill="#231F20"/>
<g id="&#60;Group&#62;">
<path id="Vector_2" d="M21.8624 5.61499H14.1376V19.5261H21.8624V5.61499Z" fill="#FF5F00"/>
<path id="&#60;Path&#62;" d="M14.6281 12.5723C14.6266 11.2324 14.9295 9.90971 15.5137 8.70442C16.0979 7.49913 16.9481 6.44285 18 5.61555C16.6976 4.5899 15.1335 3.95211 13.4865 3.77508C11.8395 3.59804 10.176 3.8889 8.68613 4.6144C7.19628 5.33991 5.94017 6.4708 5.06138 7.87782C4.18258 9.28484 3.71655 10.9112 3.71655 12.5711C3.71655 14.231 4.18258 15.8574 5.06138 17.2644C5.94017 18.6714 7.19628 19.8023 8.68613 20.5278C10.176 21.2533 11.8395 21.5442 13.4865 21.3671C15.1335 21.1901 16.6976 20.5523 18 19.5266C16.9484 18.6996 16.0984 17.6437 15.5142 16.4389C14.93 15.2341 14.627 13.9118 14.6281 12.5723Z" fill="#EB001B"/>
<path id="Vector_3" d="M32.2847 12.5719C32.2847 14.2319 31.8186 15.8584 30.9396 17.2654C30.0607 18.6725 28.8044 19.8034 27.3143 20.5288C25.8243 21.2542 24.1606 21.5449 22.5135 21.3676C20.8664 21.1903 19.3023 20.5522 18 19.5262C19.0511 18.6984 19.9009 17.6423 20.4853 16.4374C21.0696 15.2325 21.3732 13.9103 21.3732 12.5707C21.3732 11.231 21.0696 9.90887 20.4853 8.70397C19.9009 7.49907 19.0511 6.44289 18 5.61511C19.3023 4.58914 20.8664 3.95104 22.5135 3.77375C24.1606 3.59646 25.8243 3.88713 27.3143 4.61253C28.8044 5.33794 30.0607 6.46881 30.9396 7.87588C31.8186 9.28295 32.2847 10.9094 32.2847 12.5694V12.5719Z" fill="#F79E1B"/>
<path id="Vector_4" d="M31.4412 18.0518V17.7667H31.5565V17.7078H31.2646V17.7667H31.3897V18.0518H31.4412ZM32.0077 18.0518V17.7078H31.9194L31.8164 17.9535L31.7134 17.7078H31.6349V18.0518H31.6987V17.7938L31.7943 18.0174H31.8606L31.9562 17.7938V18.0542L32.0077 18.0518Z" fill="#F79E1B"/>
</g>
</g>
</g>
</g>
</svg>
