<svg width="36" height="23" viewBox="0 0 36 23" fill="none" xmlns="http://www.w3.org/2000/svg">
<g id="UnionPay_logo" clip-path="url(#clip0_105_7)">
<g id="Group">
<path id="Vector" d="M7.03732 0.000732422H16.0062C17.2582 0.000732422 18.0368 1.02344 17.7448 2.28233L13.5691 20.2494C13.2744 21.5039 12.0209 22.5275 10.7681 22.5275H1.80011C0.549883 22.5275 -0.230551 21.5039 0.0615107 20.2494L4.23891 2.28233C4.53097 1.02344 5.78381 0.000732422 7.03732 0.000732422Z" fill="#E21836"/>
<path id="Vector_2" d="M15.2597 0H25.5736C26.8254 0 26.2609 1.02271 25.9665 2.2816L21.7915 20.2487C21.4985 21.5032 21.5899 22.5268 20.3355 22.5268H10.0216C8.76719 22.5268 7.99091 21.5032 8.2856 20.2487L12.4604 2.2816C12.7568 1.02271 14.007 0 15.2597 0Z" fill="#00447C"/>
<path id="Vector_3" d="M25.1645 0H34.1334C35.3871 0 36.1658 1.02271 35.8713 2.2816L31.6963 20.2487C31.4016 21.5032 30.1473 22.5268 28.8938 22.5268H19.929C18.6747 22.5268 17.8966 21.5032 18.1905 20.2487L22.3661 2.2816C22.6582 1.02271 23.9101 0 25.1645 0Z" fill="#007B84"/>
<path id="Vector_4" d="M9.37938 5.7578C8.45706 5.76722 8.18468 5.7578 8.09767 5.7372C8.06422 5.89648 7.44185 8.77378 7.4401 8.77619C7.30609 9.35831 7.20859 9.77327 6.8774 10.0412C6.68939 10.197 6.46991 10.2721 6.21545 10.2721C5.80643 10.2721 5.56815 10.0686 5.52814 9.68256L5.52049 9.55001C5.52049 9.55001 5.6451 8.77028 5.6451 8.76589C5.6451 8.76589 6.2983 6.14383 6.41526 5.79723C6.42138 5.77752 6.42313 5.76722 6.42466 5.7578C5.15323 5.76897 4.92784 5.7578 4.91232 5.7372C4.9038 5.76547 4.87232 5.92803 4.87232 5.92803L4.20534 8.88333L4.14807 9.13396L4.03723 9.9538C4.03723 10.197 4.08489 10.3955 4.17976 10.5633C4.48363 11.0955 5.35041 11.1752 5.84075 11.1752C6.47253 11.1752 7.06518 11.0407 7.46567 10.7951C8.16085 10.3834 8.34273 9.73996 8.50494 9.16814L8.58014 8.87478C8.58014 8.87478 9.25302 6.1515 9.36735 5.79723C9.37172 5.77752 9.37347 5.76722 9.37938 5.7578ZM11.6688 7.95469C11.5066 7.95469 11.2102 7.99413 10.9439 8.12493C10.8473 8.17466 10.7559 8.23206 10.6595 8.28924L10.7465 7.97441L10.6988 7.92139C10.1342 8.03598 10.0078 8.05131 9.48621 8.12493L9.44249 8.15406C9.38193 8.65731 9.32815 9.03568 9.10364 10.0249C9.01817 10.3894 8.92941 10.7575 8.84044 11.1212L8.86449 11.1674C9.39898 11.1392 9.56119 11.1392 10.0257 11.1468L10.0633 11.1059C10.1224 10.8029 10.13 10.7319 10.2607 10.1182C10.3222 9.82725 10.4503 9.18795 10.5135 8.96031C10.6295 8.90642 10.7441 8.8534 10.8534 8.8534C11.1138 8.8534 11.0821 9.08103 11.072 9.17173C11.0608 9.324 10.966 9.82133 10.8687 10.2483L10.8038 10.524C10.7585 10.7275 10.7089 10.9253 10.6636 11.1271L10.6833 11.1674C11.2102 11.1392 11.3708 11.1392 11.8207 11.1468L11.8736 11.1059C11.955 10.6326 11.9788 10.506 12.1231 9.81695L12.1956 9.50037C12.3366 8.88078 12.4075 8.56661 12.3008 8.31071C12.188 8.02393 11.9174 7.95469 11.6688 7.95469ZM14.2263 8.60339C13.9463 8.65729 13.7677 8.69322 13.5902 8.71644C13.4142 8.74471 13.2426 8.77034 12.972 8.80802L12.9505 8.82752L12.9309 8.84308C12.9027 9.04508 12.883 9.21969 12.8456 9.42498C12.8139 9.63728 12.7652 9.87849 12.6858 10.2251C12.6244 10.4904 12.5927 10.5829 12.5577 10.6762C12.5236 10.7695 12.486 10.8602 12.4169 11.1212L12.4331 11.1453L12.4467 11.1674C12.6996 11.1553 12.8651 11.1468 13.0351 11.1453C13.205 11.1391 13.381 11.1453 13.6534 11.1468L13.6772 11.1273L13.7028 11.1058C13.7421 10.8705 13.748 10.8072 13.7721 10.6924C13.7959 10.5693 13.837 10.3988 13.9378 9.94356C13.9854 9.72973 14.0386 9.51656 14.088 9.29835C14.1393 9.08101 14.1931 8.86696 14.2443 8.65313L14.2366 8.62728L14.2263 8.60339ZM14.2323 7.72875C13.9779 7.57823 13.5312 7.62599 13.2306 7.83391C12.9309 8.03766 12.8968 8.32686 13.1504 8.47935C13.4005 8.6257 13.8489 8.5821 14.1468 8.37243C14.4459 8.1643 14.4833 7.87773 14.2323 7.72875ZM15.7712 11.2146C16.286 11.2146 16.8138 11.0724 17.211 10.6504C17.5166 10.3082 17.6567 9.79903 17.7052 9.58936C17.8633 8.89441 17.7402 8.56994 17.5857 8.37232C17.3509 8.07107 16.936 7.97446 16.5055 7.97446C16.2467 7.97446 15.6302 8.00009 15.1486 8.44506C14.8028 8.76602 14.643 9.20157 14.5466 9.61916C14.4493 10.0446 14.3374 10.8106 15.0402 11.0956C15.257 11.1889 15.5697 11.2146 15.7712 11.2146ZM15.731 9.65093C15.8497 9.12467 15.9898 8.68299 16.3475 8.68299C16.6277 8.68299 16.6481 9.01162 16.5234 9.53963C16.5011 9.65684 16.3988 10.0926 16.2605 10.2782C16.1638 10.4151 16.0495 10.4981 15.9231 10.4981C15.8855 10.4981 15.6619 10.4981 15.6584 10.1653C15.6567 10.001 15.6901 9.83321 15.731 9.65093ZM18.9922 11.1469L19.0324 11.1059C19.0895 10.8029 19.0989 10.7317 19.2252 10.1183C19.2884 9.82732 19.4191 9.18801 19.4806 8.96038C19.5969 8.90626 19.7094 8.85324 19.8223 8.85324C20.0809 8.85324 20.0494 9.08088 20.0391 9.17158C20.0297 9.32407 19.9348 9.82118 19.8358 10.2482L19.7744 10.5238C19.7274 10.7276 19.6762 10.9252 19.631 11.1272L19.6506 11.1675C20.1792 11.1392 20.3338 11.1392 20.7863 11.1469L20.841 11.1059C20.9203 10.6325 20.9417 10.5058 21.0904 9.81702L21.1612 9.50021C21.3029 8.88063 21.3746 8.56668 21.2697 8.31078C21.1536 8.02399 20.8812 7.95476 20.6361 7.95476C20.4737 7.95476 20.1757 7.99398 19.911 8.12499C19.8163 8.17472 19.7215 8.23191 19.6283 8.28931L19.7095 7.97448L19.6659 7.92124C19.1015 8.03604 18.9725 8.05138 18.4516 8.12499L18.4116 8.15413C18.3484 8.65738 18.297 9.03553 18.0725 10.0249C17.987 10.3895 17.8983 10.7576 17.8095 11.1213L17.8333 11.1675C18.3687 11.1392 18.5285 11.1392 18.9922 11.1469ZM22.8759 11.1674C22.9091 11.0048 23.1065 10.0413 23.1083 10.0413C23.1083 10.0413 23.2764 9.33425 23.2867 9.30862C23.2867 9.30862 23.3396 9.23501 23.3925 9.20587H23.4703C24.2046 9.20587 25.0338 9.20587 25.6837 8.72672C26.1259 8.39809 26.4283 7.9128 26.5632 7.32302C26.5981 7.17842 26.6239 7.00643 26.6239 6.83445C26.6239 6.60857 26.5787 6.38509 26.448 6.21048C26.1165 5.74579 25.4566 5.73725 24.6947 5.73374C24.6923 5.73374 24.3191 5.73725 24.3191 5.73725C23.3439 5.7493 22.9528 5.74579 22.7922 5.72607C22.7786 5.79728 22.753 5.92391 22.753 5.92391C22.753 5.92391 22.4037 7.54649 22.4037 7.54912C22.4037 7.54912 21.5677 10.9989 21.5284 11.1615C22.3799 11.1512 22.729 11.1512 22.8759 11.1674ZM23.5232 8.28504C23.5232 8.28504 23.8946 6.66575 23.8929 6.67188L23.9049 6.58885L23.9101 6.52553L24.0586 6.54087C24.0586 6.54087 24.8246 6.60681 24.8425 6.60857C25.1448 6.72578 25.2694 7.0279 25.1824 7.42226C25.1031 7.78266 24.8698 8.08566 24.5701 8.23202C24.3233 8.35602 24.021 8.36632 23.7094 8.36632H23.5079L23.5232 8.28504ZM25.8357 9.68092C25.7376 10.1003 25.6248 10.8662 26.3241 11.1392C26.5471 11.2343 26.7469 11.2625 26.95 11.2522C27.1644 11.2406 27.3631 11.1328 27.5472 10.9777C27.5306 11.0415 27.514 11.1052 27.4974 11.1692L27.5291 11.2102C28.0321 11.1889 28.1882 11.1889 28.7332 11.1931L28.7826 11.1554C28.8621 10.6865 28.9371 10.2313 29.1439 9.33432C29.2447 8.90469 29.3453 8.47921 29.4487 8.05133L29.4325 8.00423C28.8698 8.10874 28.7194 8.13108 28.1781 8.20798L28.137 8.2415C28.1316 8.2851 28.1259 8.32695 28.1206 8.36879C28.0365 8.23252 27.9145 8.11618 27.7263 8.04367C27.4856 7.9488 26.9202 8.07105 26.4343 8.51449C26.0928 8.83107 25.9289 9.26487 25.8357 9.68092ZM27.0175 9.70655C27.138 9.18972 27.2764 8.75242 27.6349 8.75242C27.8616 8.75242 27.9809 8.96209 27.9567 9.31964C27.9374 9.40881 27.9167 9.5028 27.892 9.60906C27.8561 9.76264 27.8172 9.91491 27.7794 10.0674C27.7409 10.1717 27.6961 10.2701 27.6469 10.3356C27.5546 10.4666 27.3352 10.5479 27.2088 10.5479C27.173 10.5479 26.9517 10.5479 26.9441 10.221C26.9423 10.0582 26.9758 9.89059 27.0175 9.70655ZM33.189 8.00005L33.1455 7.95031C32.5887 8.06336 32.4879 8.08133 31.9763 8.15056L31.9387 8.18824C31.937 8.19438 31.9355 8.2038 31.9328 8.21234L31.9311 8.2038C31.5503 9.08432 31.5614 8.89437 31.2514 9.58757C31.2497 9.55602 31.2497 9.5363 31.2479 9.50278L31.1703 8.00005L31.1216 7.95031C30.5383 8.06336 30.5246 8.08133 29.9859 8.15056L29.9439 8.18824C29.938 8.20621 29.938 8.22593 29.9345 8.2474L29.938 8.25506C30.0054 8.59991 29.9892 8.52301 30.0567 9.06723C30.0882 9.3343 30.1302 9.6029 30.1617 9.86668C30.2148 10.3081 30.2445 10.5255 30.3094 11.1992C29.9457 11.8008 29.8595 12.0284 29.5093 12.5564L29.5117 12.5617L29.2651 12.9526C29.2369 12.9937 29.2114 13.022 29.1755 13.0341C29.1362 13.0536 29.085 13.0571 29.014 13.0571H28.8773L28.6742 13.734L29.371 13.7461C29.78 13.7443 30.0371 13.5526 30.1754 13.295L30.6135 12.5426H30.6065L30.6527 12.4896C30.9473 11.8538 33.189 8.00005 33.189 8.00005ZM25.8357 16.8912H25.5401L26.6341 13.2651H26.997L27.1122 12.8915L27.1233 13.3069C27.1098 13.5637 27.3113 13.7913 27.8408 13.7537H28.4531L28.6638 13.0554H28.4334C28.301 13.0554 28.2395 13.0219 28.2472 12.95L28.236 12.5274H27.1021V12.5296C26.7355 12.5373 25.6407 12.5649 25.419 12.624C25.1508 12.6933 24.8681 12.897 24.8681 12.897L24.9792 12.523H23.9185L23.6975 13.2651L22.5889 16.9467H22.3738L22.1629 17.6399H24.2755L24.2047 17.871H25.2457L25.3148 17.6399H25.6068L25.8357 16.8912ZM24.9689 14.0019C24.7991 14.049 24.4829 14.1918 24.4829 14.1918L24.7641 13.2651H25.6068L25.4035 13.9403C25.4035 13.9403 25.1431 13.9557 24.9689 14.0019ZM24.9851 15.3258C24.9851 15.3258 24.7204 15.3591 24.5461 15.3986C24.3745 15.4507 24.0527 15.615 24.0527 15.615L24.343 14.6506H25.1901L24.9851 15.3258ZM24.5129 16.8998H23.6675L23.9126 16.0859H24.7553L24.5129 16.8998ZM26.5487 14.6506H27.7672L27.5921 15.2189H26.3574L26.1721 15.8403H27.2524L26.4344 16.9946C26.3771 17.0794 26.3257 17.1094 26.2687 17.1333C26.2114 17.1625 26.1362 17.1966 26.0492 17.1966H25.7495L25.5436 17.8771H26.3275C26.735 17.8771 26.9757 17.6913 27.1534 17.4475L27.7143 16.6781L27.8348 17.4593C27.8604 17.6057 27.9653 17.6913 28.0363 17.7246C28.1148 17.7641 28.1959 17.8318 28.3105 17.8419C28.4333 17.8471 28.5221 17.8513 28.5811 17.8513H28.9663L29.1976 17.0897H29.0457C28.9584 17.0897 28.8083 17.0751 28.7827 17.0477C28.7571 17.0144 28.7571 16.9631 28.7433 16.8851L28.6211 16.1021H28.1207L28.3402 15.8403H29.5725L29.762 15.2189H28.6211L28.7989 14.6506H29.9363L30.1472 13.9497H26.7562L26.5487 14.6506ZM16.257 17.058L16.5414 16.1098H17.7103L17.9239 15.4046H16.7539L16.9325 14.8209H18.0758L18.2877 14.138H15.4269L15.2195 14.8209H15.8694L15.6961 15.4046H15.0444L14.8284 16.1219H15.4781L15.099 17.3764C15.0479 17.5424 15.1231 17.6058 15.1707 17.6829C15.2195 17.758 15.2689 17.8077 15.3799 17.836C15.4945 17.8616 15.573 17.877 15.6797 17.877H16.9974L17.2322 17.0957L16.6481 17.1761C16.5353 17.1761 16.2229 17.1625 16.257 17.058ZM16.3911 12.5188L16.0949 13.0553C16.0315 13.1725 15.9744 13.2453 15.923 13.2788C15.8778 13.307 15.7882 13.3189 15.6583 13.3189H15.5037L15.2972 14.0053H15.8105C16.0573 14.0053 16.2468 13.9146 16.3373 13.8692C16.4346 13.8171 16.4602 13.8469 16.5354 13.7741L16.7087 13.6236H18.3116L18.5243 12.909H17.351L17.5558 12.5188H16.3911ZM18.7574 17.0718C18.7301 17.0324 18.7497 16.9629 18.7915 16.8183L19.2296 15.3651H20.788C21.0152 15.3618 21.1791 15.3592 21.2858 15.3515C21.4004 15.3395 21.525 15.2985 21.6607 15.2249C21.8009 15.1478 21.8726 15.0665 21.9331 14.9732C22.0007 14.88 22.1091 14.6763 22.2022 14.3621L22.7529 12.5231L21.1356 12.5325C21.1356 12.5325 20.6376 12.6061 20.4184 12.6874C20.1971 12.7781 19.881 13.0314 19.881 13.0314L20.0271 12.5272H19.028L17.6294 17.1761C17.5797 17.3566 17.5465 17.4876 17.5389 17.5663C17.5362 17.6511 17.6455 17.735 17.7164 17.7983C17.8001 17.8616 17.9238 17.8513 18.0425 17.8616C18.1674 17.871 18.3449 17.877 18.5899 17.877H19.3577L19.5933 17.0795L18.906 17.1445C18.8326 17.1445 18.7795 17.1051 18.7574 17.0718ZM19.5122 14.3836H21.1492L21.0451 14.7105C21.0305 14.7181 20.9955 14.6943 20.8289 14.714H19.4115L19.5122 14.3836ZM19.8402 13.2873H21.4909L21.3722 13.681C21.3722 13.681 20.5941 13.6733 20.4695 13.6963C19.9213 13.7914 19.601 14.085 19.601 14.085L19.8402 13.2873ZM21.0818 15.8051C21.0682 15.854 21.0468 15.8838 21.0168 15.9061C20.9836 15.9276 20.9298 15.9352 20.8496 15.9352H20.6163L20.6301 15.5372H19.6599L19.6206 17.4833C19.6191 17.6238 19.6326 17.705 19.7351 17.7701C19.8377 17.8514 20.1536 17.8617 20.5787 17.8617H21.1867L21.4062 17.1332L20.8769 17.1624L20.701 17.1727C20.6769 17.1624 20.6539 17.1529 20.6284 17.1273C20.6061 17.1052 20.5685 17.1188 20.5746 16.9783L20.5787 16.4795L21.1338 16.4565C21.4335 16.4565 21.5616 16.3587 21.6709 16.2656C21.7752 16.1765 21.8093 16.0739 21.8486 15.9352L21.9418 15.4936H21.179L21.0818 15.8051Z" fill="#FEFEFE"/>
</g>
</g>
<defs>
<clipPath id="clip0_105_7">
<rect width="36" height="22.5495" fill="white"/>
</clipPath>
</defs>
</svg>
