<svg width="36" height="36" viewBox="0 0 36 36" fill="none" xmlns="http://www.w3.org/2000/svg">
<g id="visa-5">
<g id="Group">
<path id="Vector" fill-rule="evenodd" clip-rule="evenodd" d="M3.96576 27.586C10.6661 24.7145 20.0677 22.1117 32.5192 24.7178L32.6498 21.5596C19.5128 20.1253 10.0864 24.3094 3.96576 27.2746V27.586Z" fill="#E7A83A"/>
<path id="Vector_2" fill-rule="evenodd" clip-rule="evenodd" d="M10.9724 19.2583L13.8764 9.68301H16.4675L13.5634 19.2583H10.9724ZM9.81406 9.68563L7.48323 13.7446C6.88988 14.8076 6.54306 15.3446 6.37628 16.0164H6.34079C6.38207 15.1647 6.26329 14.1192 6.25208 13.5283L5.99472 9.68563H1.63302L1.5882 9.94317C2.70878 9.94317 3.37329 10.5061 3.55613 11.6575L4.40629 19.2583H7.09065L12.5184 9.68563H9.81406ZM29.9643 19.2583L29.8927 17.8342L26.6572 17.8316L25.9955 19.2581H23.1825L28.2832 9.70113H31.7361L32.5999 19.2581H29.9643V19.2583ZM29.6671 13.6101C29.6384 12.9025 29.6143 11.9419 29.6625 11.3607H29.6242C29.4665 11.836 28.7892 13.2635 28.4913 13.9655L27.5272 16.0644H29.799L29.6671 13.6101ZM19.1878 19.5304C17.3584 19.5304 16.1444 18.9501 15.2777 18.4328L16.512 16.5477C17.2901 16.9829 17.901 17.4851 19.3066 17.4851C19.7585 17.4851 20.1941 17.3676 20.4413 16.9394C20.8018 16.3165 20.3582 15.9815 19.346 15.4085L18.8462 15.0835C17.3457 14.0582 16.6967 13.0844 17.403 11.3844C17.855 10.2971 19.0471 9.4729 21.0138 9.4729C22.3701 9.4729 23.6415 10.0595 24.3824 10.6327L22.9634 12.297C22.2404 11.7122 21.6411 11.4164 20.9553 11.4164C20.4085 11.4164 19.9931 11.6272 19.8497 11.9117C19.5798 12.4464 19.9369 12.8109 20.7254 13.3005L21.3197 13.6785C23.1414 14.8274 23.5754 16.0323 23.1188 17.1586C22.3336 19.0974 20.7962 19.5304 19.1878 19.5304ZM33.3087 11.1641H33.138V10.126H33.5319C33.7825 10.126 33.9104 10.2138 33.9104 10.4245C33.9104 10.6124 33.7948 10.69 33.6394 10.7076L33.9302 11.1641H33.7373L33.4691 10.7203H33.3087V11.1641ZM33.499 10.5748C33.6271 10.5748 33.7397 10.5623 33.7397 10.4118C33.7397 10.2864 33.6168 10.2713 33.5143 10.2713H33.3085V10.5748H33.499ZM33.4939 11.5652C32.9551 11.5652 32.5715 11.1616 32.5715 10.6275C32.5715 10.0633 32.9975 9.68973 33.4939 9.68973C33.9857 9.68973 34.4117 10.0633 34.4117 10.6275C34.4117 11.1915 33.9857 11.5652 33.4939 11.5652ZM33.4939 9.85278C33.0879 9.85278 32.7721 10.171 32.7721 10.6275C32.7721 11.0537 33.0479 11.4022 33.4939 11.4022C33.8951 11.4022 34.2111 11.0864 34.2111 10.6275C34.2111 10.171 33.8951 9.85278 33.4939 9.85278Z" fill="#1D5B99"/>
</g>
</g>
</svg>
