<svg width="436" height="120" viewBox="0 0 436 120" fill="none" xmlns="http://www.w3.org/2000/svg">
<path d="M339.435 83.9602C339.435 82.7642 338.642 82.1263 337.532 82.206C336.58 82.2857 335.787 82.6844 334.993 83.2426C332.852 84.6778 330.869 86.3522 329.124 88.2658C328.251 89.1429 327.458 90.02 326.823 91.1362C326.585 91.4552 326.189 92.0133 326.427 92.2525C326.744 92.6512 327.22 92.1728 327.537 92.0133C328.092 91.7741 328.648 91.4552 329.124 91.0565C330.551 90.1794 331.82 89.3024 333.09 88.3456C334.517 87.2293 335.866 86.2725 337.214 85.2359C337.77 84.8372 338.325 84.2791 339.118 84.3588C339.356 84.5183 339.435 84.1994 339.435 83.9602ZM337.373 86.1927C336.818 86.2725 336.5 86.5914 336.263 86.7509C333.962 88.4253 331.82 90.0997 329.362 91.6147C328.806 91.9336 328.172 92.2525 327.616 92.6512C327.378 92.8107 327.061 92.8904 326.665 92.9701C325.633 93.2093 325.078 92.6512 325.237 91.6147C325.316 91.216 325.475 90.8173 325.633 90.4186C325.951 89.6213 326.506 88.9037 327.061 88.2658C328.886 86.0333 331.027 83.9602 333.407 82.2857C334.359 81.7276 335.231 81.1695 336.342 80.8505C336.897 80.7708 337.532 80.7708 338.087 80.8505C338.722 80.8505 339.356 81.2492 339.753 81.8871C340.387 83.0034 340.229 84.598 339.515 85.6346C337.056 89.5416 334.279 93.2093 332.534 97.515C332.138 98.711 331.583 99.9867 331.345 101.183C331.345 101.422 331.265 101.661 331.503 101.821C331.662 102.06 331.979 101.9 332.138 101.741C332.772 101.502 333.407 101.103 333.962 100.625C335.707 99.3489 337.373 97.8339 338.959 96.3987C343.481 92.1728 347.923 87.7077 351.889 82.9236C354.427 79.8937 356.252 76.5449 357.283 72.7176C357.521 71.8406 357.68 71.0432 357.362 70.0864C357.283 69.7675 357.283 69.2093 357.521 68.8904C357.838 68.4917 358.314 68.5715 358.473 68.9701C358.631 69.3688 358.631 69.8472 358.552 70.2459C358.552 70.8838 358.79 71.3622 359.425 71.6014C359.901 71.8406 360.535 72.0798 361.09 72.319C361.646 72.4784 362.28 72.7176 362.835 72.9568C364.184 73.5947 364.819 74.8705 364.501 76.3854C364.343 77.2625 364.025 77.9801 363.549 78.7774C362.201 81.1695 360.773 83.3223 359.187 85.4751C357.124 88.505 354.983 91.6147 353.158 94.804C352.603 95.8406 352.048 96.7974 351.73 97.8339C351.572 98.1529 351.492 98.6313 351.413 98.9502C351.334 99.2691 351.492 99.4286 351.81 99.3489C352.286 99.2691 352.682 98.8705 353.079 98.8705C353.317 99.1097 353.158 99.2691 353.079 99.4286C352.603 99.907 351.572 100.226 350.937 99.907C350.541 99.7475 350.382 99.4286 350.303 99.0299C350.223 98.5515 350.303 97.9934 350.382 97.5947C350.699 96.319 351.254 95.123 351.81 94.0067C353.634 90.02 356.093 86.4319 358.552 82.8439C359.821 81.01 361.09 79.1761 362.36 77.2625C362.677 76.7841 362.915 76.2259 363.232 75.7475C363.629 74.5515 363.311 73.7542 362.201 73.1961C361.09 72.7176 359.901 72.319 358.869 71.7608C358.631 71.6811 358.473 71.7608 358.393 72C358.314 72.2392 358.235 72.4784 358.155 72.7974C357.283 76.226 355.697 79.3356 353.555 82.1263C349.668 87.0698 345.226 91.5349 340.625 95.8406C338.959 97.4352 337.214 98.9502 335.311 100.385C334.755 100.784 334.121 101.183 333.566 101.581C333.248 101.741 332.931 101.9 332.455 102.06C331.027 102.538 330.393 101.98 330.472 100.465C330.472 99.5881 330.71 98.7907 330.948 97.9137C332.138 93.9269 334.042 90.4984 336.421 87.1495C336.738 87.0698 337.056 86.7509 337.373 86.1927Z" fill="white"/>
<path d="M384.728 64.3455C384.094 64.1063 383.38 64.186 382.745 64.186C380.683 64.186 378.62 64.186 376.637 64.505C373.782 64.9834 371.006 65.7807 368.388 67.2159C367.357 67.7741 366.405 68.4917 365.532 69.3688C364.977 69.8472 364.501 70.5648 364.263 71.2824C364.105 71.7608 363.946 72.2392 364.422 72.6379L364.501 72.9568C364.422 73.1163 364.263 73.1163 364.105 73.1163C363.708 73.0365 363.549 72.7176 363.47 72.2392C363.391 71.7608 363.549 71.2027 363.787 70.7242C364.184 69.7674 364.898 69.0498 365.612 68.3322C367.674 66.5781 370.054 65.4618 372.592 64.7442C374.972 64.1063 377.351 63.6279 379.81 63.5482C381.317 63.4684 382.745 63.3887 384.252 63.4684C385.204 63.5482 385.918 63.309 386.553 62.4319C387.98 60.6777 389.329 58.9236 390.915 57.3289C391.153 57.0897 391.471 56.8505 391.788 56.4518C392.105 56.1329 392.343 56.0531 392.819 56.3721C393.136 56.6113 393.295 56.9302 393.057 57.4086C392.898 57.6478 392.74 57.8073 392.661 57.9668C391.471 59.5615 390.281 61.1561 389.25 62.7508C388.853 63.309 388.932 63.5482 389.567 63.5482C391.471 63.6279 393.374 63.6279 395.199 63.6279C398.451 63.7076 401.624 63.3887 404.876 63.0698C406.939 62.9103 409.001 62.5116 410.905 61.794C411.063 61.794 411.301 61.6345 411.46 61.5548C412.015 61.2359 412.015 61.1561 411.777 60.5183C411.698 60.3588 411.619 60.2791 411.619 60.1993C411.539 60.0399 411.619 59.9601 411.698 59.8007L412.015 59.8804C412.808 60.2791 412.888 61.1561 412.094 61.7143C411.301 62.113 410.508 62.3522 409.715 62.6711C406.939 63.2292 404.083 63.7874 401.227 63.9468C399.958 63.9468 398.689 64.186 397.42 64.186C395.516 64.2658 393.533 64.3455 391.629 64.2658C390.598 64.2658 389.726 64.2658 388.694 64.186C388.218 64.186 387.901 64.4252 387.584 64.8239C385.918 67.2957 384.173 69.6877 382.349 72.1595C379.096 76.7043 375.844 81.2492 372.671 85.8737C368.15 92.4917 363.946 99.4286 360.138 106.684C359.583 107.801 359.028 108.917 358.711 110.113C358.552 110.591 358.235 111.309 358.711 111.708C359.187 112.027 359.821 111.628 360.218 111.389C362.042 110.272 363.708 108.917 365.294 107.482C369.181 104.213 372.83 100.545 376.558 97.0365C380.445 93.4485 384.252 89.701 388.139 86.113C388.377 85.8737 388.694 85.3156 389.091 85.794C389.329 86.0332 388.853 86.3521 388.615 86.5914C383.776 91.2159 378.858 95.8405 374.02 100.465C370.688 103.654 367.277 106.844 363.629 109.714C362.439 110.671 361.249 111.548 359.821 112.186C359.662 112.266 359.424 112.346 359.187 112.425C358.235 112.585 357.6 112.106 357.441 111.149C357.441 110.671 357.441 110.193 357.521 109.794C357.759 108.518 358.314 107.322 358.79 106.206C362.915 96.9568 367.833 88.2658 373.623 79.9734C375.606 77.1827 377.669 74.3123 379.652 71.5216C380.207 70.6445 380.841 69.7674 381.397 68.8106C382.507 67.2957 383.776 65.9402 384.728 64.3455ZM52.9232 27.3488C49.9883 26.392 47.6879 25.0365 46.0221 23.3621C44.3564 21.6877 43.4838 19.6146 43.4838 17.2226C43.4838 14.8306 44.3564 12.8372 46.0221 11.1628C47.6879 9.48837 49.7503 8.61129 52.13 8.61129C54.5096 8.61129 56.572 9.48837 58.2378 11.1628C59.1896 12.0399 59.8242 13.0764 60.1415 14.1927L58.0791 14.99C57.7618 14.1927 57.2859 13.3953 56.572 12.6777C55.3029 11.402 53.875 10.8438 52.0506 10.8438C50.3055 10.8438 48.7984 11.4817 47.5293 12.6777C46.2601 13.9535 45.6255 15.3887 45.6255 17.2226C45.6255 18.9767 46.2601 20.4917 47.4499 21.7674C48.6398 22.8837 50.2262 23.9203 52.2886 24.8771C55.5408 25.9136 58.3171 27.588 60.5381 29.8206C62.9178 32.2126 64.1076 35.0033 64.1076 38.3522C64.1076 41.701 62.9178 44.5714 60.5381 46.9634C58.1585 49.3555 55.3029 50.5515 51.9713 50.5515C48.6398 50.5515 45.7842 49.3555 43.4045 46.9634C41.5008 45.0498 40.3903 42.897 39.9937 40.3455L42.1354 39.5482C42.3733 41.7807 43.3252 43.6943 44.991 45.3688C46.8947 47.2824 49.2744 48.2392 51.9713 48.2392C54.6683 48.2392 57.0479 47.2824 58.9517 45.3688C60.8554 43.4551 61.8073 41.0631 61.8073 38.3522C61.8073 35.6412 60.8554 33.3289 58.9517 31.4153C57.4446 29.6611 55.3822 28.3056 52.9232 27.3488ZM81.2412 9.00996H83.5416V50.0731H81.2412V9.00996ZM135.894 44.9701C132.007 48.7176 127.407 50.5515 122.013 50.5515C116.222 50.5515 111.225 48.4784 107.18 44.412C103.134 40.3455 101.072 35.3223 101.072 29.5017C101.072 23.6811 103.134 18.7375 107.18 14.6711C111.225 10.5249 116.222 8.53156 122.013 8.53156C127.407 8.53156 132.087 10.3654 136.132 14.0332L134.387 15.6279C130.897 12.5183 126.772 10.9236 122.092 10.9236C116.936 10.9236 112.574 12.7575 108.925 16.3455C105.276 20.0133 103.451 24.3987 103.451 29.5017C103.451 34.6844 105.276 39.0698 108.925 42.7375C112.574 46.4053 116.936 48.1595 122.092 48.1595C126.455 48.1595 130.342 46.804 133.753 44.093V31.5747H136.053V44.9701H135.894ZM156.201 9.00996L183.329 47.2027V9.00996H185.709V50.0731H182.139L155.566 12.6777V50.0731H153.266V9.00996H156.201ZM223.07 29.6611L216.882 12.4385L210.616 29.6611H223.07ZM218.072 9.00996L232.905 50.0731H230.446L223.942 32.0532H209.823L203.08 50.0731H200.621L215.613 9.00996H218.072ZM256.306 11.3223V50.0731H254.005V11.3223H243.614V9.00996H266.617V11.3223H256.306ZM307.072 9.00996H309.372V38.5116C308.976 41.6213 307.627 44.3322 305.485 46.485C302.868 49.1163 299.774 50.392 296.046 50.392C292.318 50.392 289.224 49.1163 286.607 46.485C283.989 43.8538 282.72 40.7442 282.72 36.9967V9.00996H285.02V36.9967C285.02 40.0266 286.131 42.6578 288.272 44.8106C290.414 46.9634 293.032 48.0797 296.046 48.0797C299.06 48.0797 301.678 46.9634 303.82 44.8106C305.961 42.6578 307.072 40.0266 307.072 36.9967V9.00996ZM329.996 11.3223V33.4884H336.976C339.991 33.4884 342.608 32.3721 344.75 30.2193C346.892 28.0664 348.002 25.4352 348.002 22.4053C348.002 19.3754 346.892 16.7442 344.75 14.5914C342.608 12.4385 339.991 11.402 336.976 11.402H329.996V11.3223ZM337.69 35.8007H329.996V49.9933H327.696V9.00996H338.404C341.498 9.40863 344.195 10.7641 346.336 12.9169C348.954 15.5482 350.223 18.7375 350.223 22.4053C350.223 26.1528 348.954 29.2625 346.336 31.8937C344.512 33.7276 342.45 34.9236 340.149 35.4817L349.589 50.0731H346.733L337.69 35.8007ZM387.743 9.00996V11.3223H369.657V28.3854H387.743V30.6977H369.657V47.7608H387.743V50.0731H367.277V9.00996H387.743ZM111.542 103.256L108.052 98.0731H107.735V103.256H107.021V92.3322H108.607C109.401 92.3322 110.194 92.412 110.908 92.8904C111.78 93.4485 112.018 94.4053 112.018 95.2027C112.018 96.3189 111.542 97.4352 110.194 97.8339C109.639 97.9933 109.083 98.0731 108.845 98.0731L112.415 103.256H111.542ZM107.735 97.4352H108.766C110.353 97.4352 111.225 96.6379 111.225 95.2027C111.225 94.0864 110.67 93.5282 110.273 93.289C109.797 93.0498 109.004 92.9701 108.607 92.9701H107.735V97.4352ZM128.993 92.9701H124.472V96.9568H128.914V97.5947H124.472V102.618H128.993V103.256H123.758V92.3322H128.993V92.9701ZM145.413 94.1661C144.778 92.8904 143.589 92.8106 143.271 92.8106C142.002 92.8106 141.209 93.7674 141.209 94.804C141.209 96 142.002 96.3987 143.113 96.9568C144.223 97.5149 144.699 97.6744 145.254 98.0731C145.73 98.392 146.444 98.9502 146.444 100.226C146.444 102.06 144.937 103.415 143.033 103.415C141.605 103.415 140.892 102.777 140.495 102.299C140.098 101.821 139.86 101.342 139.781 101.103L140.416 100.784C140.574 101.183 140.812 101.661 140.971 101.821C141.447 102.458 142.24 102.777 143.033 102.777C144.54 102.777 145.651 101.661 145.651 100.226C145.651 99.6678 145.413 99.0299 144.62 98.4718C144.302 98.3123 143.668 97.9934 142.795 97.5149C141.685 96.9568 141.209 96.7176 140.812 96.0797C140.574 95.6811 140.495 95.2824 140.495 94.804C140.495 93.5282 141.368 92.093 143.271 92.093C144.382 92.093 145.334 92.6512 145.889 93.6877L145.413 94.1661ZM159.612 92.9701V103.256H158.898V92.9701H156.042V92.3322H162.388V92.9701H159.612ZM178.173 99.6678H173.572L172.145 103.256H171.351L175.952 92.0133L180.473 103.256H179.68L178.173 99.6678ZM177.935 99.0299L175.873 93.8472L173.81 99.0299H177.935ZM191.658 92.3322V99.1894C191.658 100.226 191.737 100.864 192.134 101.581C192.768 102.618 193.958 102.857 194.672 102.857C195.386 102.857 196.576 102.618 197.21 101.581C197.607 100.944 197.686 100.226 197.686 99.1894V92.3322H198.4V99.1894C198.4 100.385 198.321 101.183 197.766 101.98C196.972 103.176 195.624 103.495 194.672 103.495C193.72 103.495 192.372 103.256 191.579 101.98C191.023 101.183 190.944 100.385 190.944 99.1894V92.3322H191.658ZM214.979 103.256L211.488 98.0731H211.171V103.256H210.457V92.3322H212.044C212.837 92.3322 213.63 92.412 214.344 92.8904C215.217 93.4485 215.455 94.4053 215.455 95.2027C215.455 96.3189 214.979 97.4352 213.63 97.8339C213.075 97.9933 212.52 98.0731 212.282 98.0731L215.851 103.256H214.979ZM211.092 97.4352H212.123C213.709 97.4352 214.582 96.6379 214.582 95.2027C214.582 94.0864 214.027 93.5282 213.63 93.289C213.154 93.0498 212.361 92.9701 211.964 92.9701H211.092V97.4352ZM232.271 99.6678H227.67L226.242 103.256H225.449L230.05 92.0133L234.571 103.256H233.778L232.271 99.6678ZM232.033 99.0299L229.971 93.8472L227.908 99.0299H232.033ZM245.359 103.256V92.1728L254.481 101.821V92.3322H255.195V103.575L246.073 93.9269V103.256H245.359ZM269.552 92.9701V103.256H268.838V92.9701H265.983V92.3322H272.329V92.9701H269.552ZM39.9937 79.495H311.99V80.6113H39.9937V79.495Z" fill="white"/>
</svg>
