<svg width="150" height="46" viewBox="0 0 150 46" fill="none" xmlns="http://www.w3.org/2000/svg">
<g id="Group 2.2">
<g id="Group">
<path id="Vector" d="M149.531 40.6095C149.531 43.1091 147.606 45.1338 145.225 45.1338H4.31157C1.93173 45.1338 0 43.1091 0 40.6095V4.53037C0 2.03201 1.93173 0.000244141 4.31157 0.000244141H145.224C147.606 0.000244141 149.53 2.03201 149.53 4.53037L149.531 40.6095Z" fill="#222F35"/>
<g id="Group 2">
<g id="Group_2">
<g id="Group_3">
<path id="Vector_2" d="M32.837 21.8526C32.8045 18.2843 35.8009 16.5483 35.9379 16.4675C34.2409 14.0284 31.6106 13.6952 30.6863 13.6686C28.4772 13.4395 26.3343 14.9717 25.209 14.9717C24.0612 14.9717 22.3282 13.6908 20.4605 13.7284C18.0571 13.7649 15.8087 15.1367 14.5755 17.2668C12.0306 21.6101 13.9286 27.9928 16.3668 31.5035C17.5865 33.2229 19.0117 35.1427 20.8772 35.0751C22.7022 35.0009 23.3839 33.9281 25.5863 33.9281C27.7685 33.9281 28.4087 35.0751 30.3112 35.0319C32.2699 35.0009 33.503 33.3048 34.68 31.5699C36.0895 29.5992 36.6556 27.6584 36.678 27.5588C36.632 27.5433 32.8741 26.1295 32.837 21.8526Z" fill="white"/>
<path id="Vector_3" d="M29.2432 11.3589C30.2248 10.1488 30.8964 8.50246 30.71 6.83179C29.2892 6.89379 27.5125 7.80053 26.4894 8.98406C25.5841 10.027 24.7755 11.7364 24.9844 13.344C26.5803 13.4613 28.2189 12.5502 29.2432 11.3589Z" fill="white"/>
</g>
</g>
<g id="Group_4">
<path id="Vector_4" d="M58.5532 34.0557H56.1433L54.8232 30.0175H50.2347L48.9772 34.0557H46.631L51.177 20.3079H53.9849L58.5532 34.0557ZM54.4253 28.3233L53.2315 24.7334C53.1052 24.3667 52.8685 23.5031 52.5194 22.1436H52.477C52.338 22.7283 52.1141 23.5919 51.8063 24.7334L50.6337 28.3233H54.4253Z" fill="white"/>
<path id="Vector_5" d="M70.2443 28.9779C70.2443 30.6638 69.7763 31.9964 68.8403 32.9747C68.002 33.8456 66.961 34.2805 65.7184 34.2805C64.3771 34.2805 63.4135 33.8115 62.8267 32.8735H62.7842V38.0956H60.5218V27.4066C60.5218 26.3467 60.4932 25.2589 60.438 24.1432H62.4277L62.554 25.7145H62.5964C63.3509 24.5306 64.4959 23.9397 66.0325 23.9397C67.2337 23.9397 68.2365 24.4015 69.0388 25.326C69.8432 26.2517 70.2443 27.4686 70.2443 28.9779ZM67.9394 29.0585C67.9394 28.0936 67.7166 27.2981 67.2687 26.6721C66.7795 26.0192 66.1227 25.6928 65.2992 25.6928C64.741 25.6928 64.2338 25.8746 63.7807 26.2331C63.3265 26.5946 63.0294 27.0667 62.8904 27.6514C62.8203 27.9242 62.7853 28.1473 62.7853 28.3229V29.9758C62.7853 30.6969 63.0124 31.3053 63.4666 31.8022C63.9208 32.2991 64.5108 32.5471 65.2366 32.5471C66.0887 32.5471 66.752 32.2268 67.2263 31.5884C67.7017 30.9489 67.9394 30.106 67.9394 29.0585Z" fill="white"/>
<path id="Vector_6" d="M81.9563 28.9779C81.9563 30.6638 81.4884 31.9964 80.5514 32.9747C79.7141 33.8456 78.6731 34.2805 77.4304 34.2805C76.0891 34.2805 75.1256 33.8115 74.5398 32.8735H74.4974V38.0956H72.235V27.4066C72.235 26.3467 72.2063 25.2589 72.1511 24.1432H74.1408L74.2671 25.7145H74.3095C75.063 24.5306 76.208 23.9397 77.7456 23.9397C78.9458 23.9397 79.9486 24.4015 80.753 25.326C81.5542 26.2517 81.9563 27.4686 81.9563 28.9779ZM79.6515 29.0585C79.6515 28.0936 79.4276 27.2981 78.9798 26.6721C78.4906 26.0192 77.8358 25.6928 77.0113 25.6928C76.4521 25.6928 75.9459 25.8746 75.4917 26.2331C75.0375 26.5946 74.7414 27.0667 74.6024 27.6514C74.5335 27.9242 74.4974 28.1473 74.4974 28.3229V29.9758C74.4974 30.6969 74.7245 31.3053 75.1765 31.8022C75.6307 32.2981 76.2207 32.5471 76.9487 32.5471C77.8008 32.5471 78.464 32.2268 78.9384 31.5884C79.4138 30.9489 79.6515 30.106 79.6515 29.0585Z" fill="white"/>
<path id="Vector_7" d="M95.0511 30.2006C95.0511 31.37 94.634 32.3215 93.7968 33.056C92.8767 33.8586 91.5959 34.2595 89.95 34.2595C88.4304 34.2595 87.2122 33.9743 86.29 33.4031L86.8143 31.5673C87.8075 32.152 88.8973 32.4454 90.0848 32.4454C90.9369 32.4454 91.6001 32.2574 92.0766 31.8834C92.551 31.5095 92.7876 31.0074 92.7876 30.3814C92.7876 29.8235 92.5923 29.3535 92.2008 28.9723C91.8113 28.5911 91.1608 28.2368 90.2525 27.9093C87.7799 27.0116 86.5447 25.6965 86.5447 23.9672C86.5447 22.837 86.9777 21.9104 87.8447 21.1893C88.7085 20.4672 89.8609 20.1067 91.302 20.1067C92.587 20.1067 93.6546 20.3247 94.5067 20.7596L93.9411 22.555C93.1452 22.1335 92.2453 21.9228 91.2383 21.9228C90.4424 21.9228 89.8206 22.1139 89.3749 22.4941C88.9982 22.8339 88.8093 23.2482 88.8093 23.7389C88.8093 24.2823 89.0247 24.7316 89.4576 25.085C89.8344 25.4114 90.5188 25.7647 91.5121 26.1459C92.7271 26.6221 93.6196 27.1789 94.1936 27.8174C94.7656 28.4537 95.0511 29.2502 95.0511 30.2006Z" fill="white"/>
<path id="Vector_8" d="M102.531 25.7955H100.037V30.6085C100.037 31.8326 100.477 32.4442 101.358 32.4442C101.762 32.4442 102.097 32.4101 102.362 32.3419L102.425 34.0144C101.979 34.1766 101.393 34.2582 100.666 34.2582C99.7722 34.2582 99.0739 33.9927 98.5698 33.4628C98.0679 32.9318 97.8153 32.0413 97.8153 30.7903V25.7934H96.3297V24.1406H97.8153V22.3255L100.037 21.6726V24.1406H102.531V25.7955Z" fill="white"/>
<path id="Vector_9" d="M113.783 29.0174C113.783 30.5411 113.335 31.7921 112.441 32.7704C111.504 33.7777 110.261 34.2797 108.71 34.2797C107.216 34.2797 106.027 33.7973 105.14 32.8324C104.252 31.8676 103.809 30.6496 103.809 29.1816C103.809 27.6455 104.265 26.3872 105.181 25.4089C106.095 24.4296 107.328 23.9399 108.878 23.9399C110.372 23.9399 111.574 24.4224 112.482 25.3883C113.35 26.3253 113.783 27.535 113.783 29.0174ZM111.435 29.0887C111.435 28.1744 111.235 27.3903 110.828 26.7364C110.354 25.9451 109.676 25.5505 108.797 25.5505C107.888 25.5505 107.197 25.9461 106.723 26.7364C106.316 27.3914 106.116 28.1878 106.116 29.13C106.116 30.0442 106.316 30.8283 106.723 31.4812C107.212 32.2725 107.895 32.6671 108.777 32.6671C109.641 32.6671 110.319 32.2642 110.808 31.4605C111.225 30.7942 111.435 30.0019 111.435 29.0887Z" fill="white"/>
<path id="Vector_10" d="M121.137 26.0802C120.913 26.0399 120.674 26.0192 120.424 26.0192C119.628 26.0192 119.012 26.3116 118.579 26.8973C118.203 27.4138 118.014 28.0667 118.014 28.8549V34.0563H115.752L115.774 27.2651C115.774 26.1225 115.745 25.0822 115.689 24.1442H117.659L117.742 26.0409H117.805C118.043 25.3891 118.42 24.8643 118.936 24.4707C119.44 24.1163 119.984 23.9397 120.571 23.9397C120.78 23.9397 120.969 23.9542 121.137 23.98V26.0802Z" fill="white"/>
<path id="Vector_11" d="M131.255 28.6303C131.255 29.0249 131.229 29.3576 131.172 29.6293H124.385C124.412 30.6086 124.74 31.3576 125.37 31.8741C125.942 32.3359 126.682 32.5673 127.59 32.5673C128.595 32.5673 129.512 32.4113 130.336 32.0983L130.691 33.6272C129.727 34.0363 128.59 34.2398 127.277 34.2398C125.698 34.2398 124.458 33.7873 123.556 32.8834C122.657 31.9795 122.206 30.7656 122.206 29.2429C122.206 27.7481 122.625 26.5033 123.464 25.5105C124.343 24.4506 125.53 23.9207 127.024 23.9207C128.492 23.9207 129.603 24.4506 130.357 25.5105C130.955 26.3525 131.255 27.3938 131.255 28.6303ZM129.098 28.059C129.113 27.4062 128.965 26.8421 128.659 26.3659C128.267 25.7533 127.665 25.4475 126.856 25.4475C126.116 25.4475 125.514 25.7461 125.055 26.3452C124.678 26.8215 124.454 27.3927 124.385 28.058H129.098V28.059Z" fill="white"/>
</g>
<g id="Group_5">
<g id="Group_6">
<path id="Vector_12" d="M53.5319 11.4703C53.5319 12.674 53.172 13.5801 52.4532 14.1886C51.7874 14.75 50.8413 15.0313 49.6157 15.0313C49.0081 15.0313 48.4881 15.0047 48.0527 14.9515V8.37468C48.6206 8.28264 49.2324 8.2356 49.8931 8.2356C51.0605 8.2356 51.9404 8.49024 52.5338 8.99953C53.1985 9.5753 53.5319 10.3985 53.5319 11.4703ZM52.4053 11.5C52.4053 10.7197 52.1994 10.1214 51.7874 9.70415C51.3755 9.28793 50.774 9.0793 49.9818 9.0793C49.6453 9.0793 49.3588 9.1018 49.1213 9.14884V14.1487C49.2528 14.1691 49.4934 14.1783 49.8431 14.1783C50.6608 14.1783 51.2919 13.9503 51.7365 13.4942C52.181 13.0381 52.4053 12.3733 52.4053 11.5Z" fill="white"/>
<path id="Vector_13" d="M59.5057 12.5217C59.5057 13.2631 59.2947 13.8706 58.8726 14.3472C58.4301 14.837 57.8438 15.0815 57.1118 15.0815C56.4062 15.0815 55.8444 14.8473 55.4254 14.3768C55.0074 13.9074 54.7983 13.3153 54.7983 12.6015C54.7983 11.8549 55.0135 11.2423 55.4458 10.7668C55.8781 10.2913 56.4592 10.053 57.1913 10.053C57.8968 10.053 58.4637 10.2872 58.893 10.7566C59.3008 11.2127 59.5057 11.8017 59.5057 12.5217ZM58.3974 12.5565C58.3974 12.1116 58.3016 11.7302 58.1109 11.4121C57.8866 11.0276 57.5675 10.8353 57.1525 10.8353C56.7233 10.8353 56.397 11.0276 56.1727 11.4121C55.981 11.7302 55.8862 12.1178 55.8862 12.5759C55.8862 13.0208 55.9821 13.4022 56.1727 13.7203C56.4042 14.1048 56.7264 14.2971 57.1423 14.2971C57.5502 14.2971 57.8703 14.1017 58.1007 13.7101C58.2985 13.3859 58.3974 13.0013 58.3974 12.5565Z" fill="white"/>
<path id="Vector_14" d="M67.5155 10.1511L66.0116 14.972H65.0328L64.4098 12.8786C64.2518 12.356 64.1233 11.8365 64.0234 11.3211H64.004C63.9113 11.8508 63.7828 12.3693 63.6176 12.8786L62.9559 14.972H61.9659L60.5518 10.1511H61.6498L62.1933 12.4429C62.3248 12.985 62.4329 13.5014 62.5195 13.9902H62.5389C62.6184 13.5873 62.75 13.0739 62.9355 12.4532L63.6176 10.1521H64.4883L65.1419 12.4041C65.2999 12.9532 65.4284 13.482 65.5273 13.9913H65.5569C65.6293 13.4953 65.7383 12.9665 65.8831 12.4041L66.4663 10.1521H67.5155V10.1511Z" fill="white"/>
<path id="Vector_15" d="M73.0549 14.9722H71.9864V12.211C71.9864 11.3601 71.6642 10.9347 71.0178 10.9347C70.7007 10.9347 70.4448 11.0512 70.246 11.2854C70.0492 11.5196 69.9493 11.7958 69.9493 12.1118V14.9712H68.8808V11.5288C68.8808 11.1054 68.8675 10.6463 68.842 10.1492H69.7811L69.831 10.903H69.8606C69.985 10.6688 70.1705 10.4755 70.4142 10.3211C70.7038 10.1411 71.028 10.05 71.3828 10.05C71.8314 10.05 72.2046 10.1953 72.5013 10.4867C72.8704 10.8436 73.0549 11.3765 73.0549 12.0841V14.9722Z" fill="white"/>
<path id="Vector_16" d="M76.0016 14.9721H74.9341V7.93921H76.0016V14.9721Z" fill="white"/>
<path id="Vector_17" d="M82.2921 12.5217C82.2921 13.2631 82.0811 13.8706 81.6589 14.3472C81.2165 14.837 80.6292 15.0815 79.8981 15.0815C79.1916 15.0815 78.6298 14.8473 78.2118 14.3768C77.7937 13.9074 77.5847 13.3153 77.5847 12.6015C77.5847 11.8549 77.7998 11.2423 78.2322 10.7668C78.6645 10.2913 79.2456 10.053 79.9766 10.053C80.6832 10.053 81.2491 10.2872 81.6793 10.7566C82.0872 11.2127 82.2921 11.8017 82.2921 12.5217ZM81.1828 12.5565C81.1828 12.1116 81.087 11.7302 80.8963 11.4121C80.673 11.0276 80.3529 10.8353 79.9389 10.8353C79.5087 10.8353 79.1824 11.0276 78.9591 11.4121C78.7674 11.7302 78.6726 12.1178 78.6726 12.5759C78.6726 13.0208 78.7684 13.4022 78.9591 13.7203C79.1905 14.1048 79.5127 14.2971 79.9287 14.2971C80.3366 14.2971 80.6557 14.1017 80.8861 13.7101C81.0849 13.3859 81.1828 13.0013 81.1828 12.5565Z" fill="white"/>
<path id="Vector_18" d="M87.4636 14.972H86.5042L86.4246 14.4167H86.3951C86.0668 14.8595 85.5988 15.0815 84.9911 15.0815C84.5374 15.0815 84.1704 14.9352 83.894 14.6448C83.6432 14.3809 83.5178 14.0527 83.5178 13.663C83.5178 13.074 83.7625 12.625 84.255 12.3141C84.7464 12.0032 85.4377 11.8508 86.3278 11.858V11.768C86.3278 11.1329 85.9954 10.8159 85.3296 10.8159C84.8555 10.8159 84.4375 10.9355 84.0766 11.1728L83.8594 10.4692C84.306 10.1921 84.8575 10.053 85.508 10.053C86.7642 10.053 87.3943 10.7177 87.3943 12.0472V13.8226C87.3943 14.3042 87.4177 14.6877 87.4636 14.972ZM86.3543 13.3153V12.5718C85.1757 12.5514 84.5863 12.8756 84.5863 13.5434C84.5863 13.7949 84.6536 13.9831 84.7913 14.1089C84.9289 14.2347 85.1043 14.2971 85.3133 14.2971C85.5478 14.2971 85.767 14.2224 85.9668 14.0741C86.1677 13.9248 86.2911 13.7356 86.337 13.5035C86.3482 13.4513 86.3543 13.3879 86.3543 13.3153Z" fill="white"/>
<path id="Vector_19" d="M93.5351 14.9721H92.5869L92.5369 14.198H92.5074C92.2046 14.787 91.6887 15.0816 90.9637 15.0816C90.3846 15.0816 89.9024 14.8535 89.52 14.3974C89.1377 13.9413 88.947 13.3492 88.947 12.622C88.947 11.8417 89.154 11.2097 89.57 10.727C89.9727 10.277 90.4662 10.0521 91.0535 10.0521C91.6989 10.0521 92.1505 10.2699 92.4075 10.7066H92.4279V7.93921H93.4974V13.6733C93.4974 14.1427 93.5096 14.5753 93.5351 14.9721ZM92.4279 12.9391V12.1352C92.4279 11.9962 92.4177 11.8837 92.3983 11.7978C92.3381 11.54 92.2086 11.3232 92.0119 11.1484C91.813 10.9735 91.5734 10.8855 91.2971 10.8855C90.8985 10.8855 90.5865 11.044 90.3571 11.3621C90.1297 11.6801 90.0145 12.0861 90.0145 12.5821C90.0145 13.0587 90.1236 13.4453 90.3428 13.7429C90.5743 14.0599 90.8863 14.2184 91.2768 14.2184C91.6275 14.2184 91.9079 14.0865 92.121 13.8216C92.3269 13.5772 92.4279 13.2827 92.4279 12.9391Z" fill="white"/>
<path id="Vector_20" d="M102.674 12.5217C102.674 13.2631 102.463 13.8706 102.041 14.3472C101.598 14.837 101.013 15.0815 100.28 15.0815C99.5752 15.0815 99.0134 14.8473 98.5934 14.3768C98.1753 13.9074 97.9663 13.3153 97.9663 12.6015C97.9663 11.8549 98.1814 11.2423 98.6137 10.7668C99.046 10.2913 99.6272 10.053 100.36 10.053C101.065 10.053 101.633 10.2872 102.061 10.7566C102.469 11.2127 102.674 11.8017 102.674 12.5217ZM101.566 12.5565C101.566 12.1116 101.471 11.7302 101.28 11.4121C101.055 11.0276 100.737 10.8353 100.321 10.8353C99.8923 10.8353 99.566 11.0276 99.3407 11.4121C99.149 11.7302 99.0542 12.1178 99.0542 12.5759C99.0542 13.0208 99.15 13.4022 99.3407 13.7203C99.5721 14.1048 99.8943 14.2971 100.31 14.2971C100.718 14.2971 101.039 14.1017 101.27 13.7101C101.467 13.3859 101.566 13.0013 101.566 12.5565Z" fill="white"/>
<path id="Vector_21" d="M108.419 14.9722H107.351V12.211C107.351 11.3601 107.029 10.9347 106.382 10.9347C106.065 10.9347 105.809 11.0512 105.611 11.2854C105.413 11.5196 105.314 11.7958 105.314 12.1118V14.9712H104.245V11.5288C104.245 11.1054 104.233 10.6463 104.207 10.1492H105.145L105.195 10.903H105.225C105.35 10.6688 105.536 10.4755 105.778 10.3211C106.069 10.1411 106.392 10.05 106.748 10.05C107.195 10.05 107.569 10.1953 107.865 10.4867C108.235 10.8436 108.419 11.3765 108.419 12.0841V14.9722Z" fill="white"/>
<path id="Vector_22" d="M115.61 10.9539H114.433V13.2958C114.433 13.891 114.642 14.1886 115.056 14.1886C115.248 14.1886 115.407 14.1722 115.532 14.1385L115.56 14.9515C115.349 15.0313 115.071 15.0711 114.73 15.0711C114.308 15.0711 113.98 14.9423 113.742 14.6846C113.503 14.4269 113.385 13.9932 113.385 13.3848V10.9539H112.683V10.1511H113.385V9.26747L114.432 8.95044V10.15H115.609V10.9539H115.61Z" fill="white"/>
<path id="Vector_23" d="M121.267 14.9721H120.197V12.2314C120.197 11.3672 119.875 10.9346 119.23 10.9346C118.734 10.9346 118.396 11.1852 118.21 11.6863C118.178 11.7916 118.16 11.9205 118.16 12.0718V14.9711H117.093V7.93921H118.16V10.8446H118.18C118.517 10.3159 118.999 10.0521 119.624 10.0521C120.067 10.0521 120.433 10.1973 120.723 10.4887C121.085 10.8518 121.267 11.3918 121.267 12.1056V14.9721Z" fill="white"/>
<path id="Vector_24" d="M127.102 12.334C127.102 12.5262 127.087 12.6878 127.062 12.8197H123.857C123.872 13.2963 124.025 13.6593 124.321 13.9109C124.592 14.1359 124.942 14.2484 125.37 14.2484C125.845 14.2484 126.277 14.1727 126.666 14.0203L126.834 14.7648C126.378 14.9632 125.841 15.0624 125.221 15.0624C124.476 15.0624 123.89 14.8426 123.466 14.4028C123.04 13.9631 122.829 13.373 122.829 12.6326C122.829 11.9055 123.025 11.3 123.422 10.8173C123.836 10.3019 124.396 10.0442 125.102 10.0442C125.794 10.0442 126.319 10.3019 126.673 10.8173C126.96 11.2264 127.102 11.7326 127.102 12.334ZM126.082 12.0568C126.09 11.7388 126.02 11.4647 125.875 11.2336C125.69 10.936 125.407 10.7867 125.025 10.7867C124.676 10.7867 124.392 10.9319 124.174 11.2233C123.997 11.4555 123.892 11.7326 123.857 12.0568H126.082Z" fill="white"/>
</g>
</g>
</g>
</g>
</g>
</svg>
