<svg width="150" height="46" viewBox="0 0 150 46" fill="none" xmlns="http://www.w3.org/2000/svg">
<g id="Group 3.2">
<g id="g10">
<g id="g12">
<path id="path14" d="M144.462 45.1335H6.00694C2.96232 45.1335 0.46875 42.5934 0.46875 39.4919V5.64172C0.46875 2.5402 2.96232 3.05186e-05 6.00694 3.05186e-05H144.462C147.506 3.05186e-05 150 2.5402 150 5.64172V39.4919C150 42.5934 147.506 45.1335 144.462 45.1335Z" fill="#222F35"/>
<g id="Group">
<g id="g18">
<path id="path20" d="M52.9902 12.5585C52.9902 13.4726 52.7133 14.2047 52.1677 14.7508C51.5405 15.398 50.7237 15.7237 49.7226 15.7237C48.7659 15.7237 47.949 15.3926 47.2789 14.7398C46.6074 14.0775 46.2723 13.2646 46.2723 12.2917C46.2723 11.3187 46.6074 10.5059 47.2789 9.849C47.949 9.19078 48.7659 8.85962 49.7226 8.85962C50.1989 8.85962 50.653 8.95678 51.0864 9.13741C51.5184 9.31942 51.8701 9.56573 52.1248 9.86953L51.5461 10.447C51.1016 9.92837 50.4966 9.67247 49.7226 9.67247C49.0248 9.67247 48.4198 9.91332 47.9061 10.3991C47.398 10.8863 47.1432 11.5171 47.1432 12.2917C47.1432 13.0662 47.398 13.7025 47.9061 14.1897C48.4198 14.67 49.0248 14.9163 49.7226 14.9163C50.4634 14.9163 51.0864 14.67 51.5779 14.1842C51.9019 13.8626 52.0861 13.4193 52.1345 12.8527H49.7226V12.0618H52.9403C52.9791 12.2328 52.9902 12.3984 52.9902 12.5585Z" fill="white" stroke="black" stroke-width="0.16" stroke-miterlimit="10"/>
</g>
<g id="g22">
<path id="path24" d="M58.095 9.81553H55.0726V11.8956H57.7974V12.6865H55.0726V14.7665H58.095V15.5726H54.2169V9.00952H58.095V9.81553Z" fill="white" stroke="black" stroke-width="0.16" stroke-miterlimit="10"/>
</g>
<g id="g26">
<path id="path28" d="M61.6977 15.5726H60.8421V9.81553H58.9882V9.00952H63.553V9.81553H61.6977V15.5726Z" fill="white" stroke="black" stroke-width="0.16" stroke-miterlimit="10"/>
</g>
<g id="g30">
<path id="path32" d="M66.8566 15.5726V9.00952H67.7108V15.5726H66.8566Z" fill="white" stroke="black" stroke-width="0.16" stroke-miterlimit="10"/>
</g>
<g id="g34">
<path id="path36" d="M71.4974 15.5726H70.6487V9.81553H68.7878V9.00952H73.3582V9.81553H71.4974V15.5726Z" fill="white" stroke="black" stroke-width="0.16" stroke-miterlimit="10"/>
</g>
<g id="g38">
<path id="path40" d="M82.0006 14.7289C81.3457 15.3926 80.5343 15.7237 79.5665 15.7237C78.5932 15.7237 77.7818 15.3926 77.1269 14.7289C76.4734 14.0665 76.1481 13.2537 76.1481 12.2917C76.1481 11.3297 76.4734 10.5168 77.1269 9.85448C77.7818 9.19078 78.5932 8.85962 79.5665 8.85962C80.5288 8.85962 81.3401 9.19078 81.995 9.85995C82.6541 10.5277 82.9794 11.3351 82.9794 12.2917C82.9794 13.2537 82.6541 14.0665 82.0006 14.7289ZM77.7597 14.1787C78.2526 14.67 78.8521 14.9163 79.5665 14.9163C80.2754 14.9163 80.8805 14.67 81.3678 14.1787C81.8593 13.6875 82.1085 13.0566 82.1085 12.2917C82.1085 11.5267 81.8593 10.8959 81.3678 10.4046C80.8805 9.91332 80.2754 9.667 79.5665 9.667C78.8521 9.667 78.2526 9.91332 77.7597 10.4046C77.2682 10.8959 77.019 11.5267 77.019 12.2917C77.019 13.0566 77.2682 13.6875 77.7597 14.1787Z" fill="white" stroke="black" stroke-width="0.16" stroke-miterlimit="10"/>
</g>
<g id="g42">
<path id="path44" d="M84.1801 15.5726V9.00952H85.2185L88.4472 14.1138H88.4846L88.4472 12.8521V9.00952H89.3015V15.5726H88.4099L85.0288 10.2165H84.9914L85.0288 11.4837V15.5726H84.1801Z" fill="white" stroke="black" stroke-width="0.16" stroke-miterlimit="10"/>
</g>
<path id="path46" d="M75.9376 25.1576C73.3361 25.1576 71.2108 27.1144 71.2108 29.8144C71.2108 32.4924 73.3361 34.4698 75.9376 34.4698C78.5447 34.4698 80.67 32.4924 80.67 29.8144C80.67 27.1144 78.5447 25.1576 75.9376 25.1576ZM75.9376 32.6361C74.5102 32.6361 73.2821 31.4716 73.2821 29.8144C73.2821 28.1353 74.5102 26.9913 75.9376 26.9913C77.3651 26.9913 78.5987 28.1353 78.5987 29.8144C78.5987 31.4716 77.3651 32.6361 75.9376 32.6361ZM65.6241 25.1576C63.017 25.1576 60.8973 27.1144 60.8973 29.8144C60.8973 32.4924 63.017 34.4698 65.6241 34.4698C68.2298 34.4698 70.351 32.4924 70.351 29.8144C70.351 27.1144 68.2298 25.1576 65.6241 25.1576ZM65.6241 32.6361C64.1953 32.6361 62.963 31.4716 62.963 29.8144C62.963 28.1353 64.1953 26.9913 65.6241 26.9913C67.0516 26.9913 68.2797 28.1353 68.2797 29.8144C68.2797 31.4716 67.0516 32.6361 65.6241 32.6361ZM53.3515 26.5849V28.5636H58.1323C57.9925 29.6693 57.6187 30.4822 57.0455 31.0487C56.3476 31.7329 55.2608 32.4924 53.3515 32.4924C50.4093 32.4924 48.1054 30.1455 48.1054 27.2376C48.1054 24.3297 50.4093 21.9828 53.3515 21.9828C54.9423 21.9828 56.0998 22.5972 56.9541 23.3937L58.3649 21.9992C57.1701 20.8716 55.5806 20.0054 53.3515 20.0054C49.3169 20.0054 45.9261 23.25 45.9261 27.2376C45.9261 31.2252 49.3169 34.4698 53.3515 34.4698C55.5321 34.4698 57.1701 33.7637 58.4577 32.439C59.7772 31.1349 60.1884 29.3012 60.1884 27.8206C60.1884 27.3608 60.1496 26.9379 60.0804 26.5849H53.3515ZM103.536 28.1189C103.147 27.0775 101.946 25.1576 99.5013 25.1576C97.0783 25.1576 95.061 27.0447 95.061 29.8144C95.061 32.4226 97.0575 34.4698 99.7339 34.4698C101.898 34.4698 103.147 33.1657 103.66 32.4062L102.054 31.3484C101.519 32.1229 100.789 32.6361 99.7339 32.6361C98.6858 32.6361 97.9339 32.1613 97.4521 31.2252L103.753 28.6485L103.536 28.1189ZM97.1115 29.6693C97.0575 27.8739 98.5224 26.9543 99.5719 26.9543C100.394 26.9543 101.092 27.3608 101.325 27.9424L97.1115 29.6693ZM91.9901 34.1865H94.0614V20.5021H91.9901V34.1865ZM88.5979 26.1949H88.5287C88.0635 25.6502 87.176 25.1576 86.0518 25.1576C83.6925 25.1576 81.5354 27.2048 81.5354 29.8294C81.5354 32.439 83.6925 34.4698 86.0518 34.4698C87.176 34.4698 88.0635 33.9731 88.5287 33.412H88.5979V34.0798C88.5979 35.8601 87.6357 36.8167 86.0836 36.8167C84.8181 36.8167 84.0331 35.9135 83.7091 35.154L81.9078 35.8971C82.427 37.1314 83.8019 38.6504 86.0836 38.6504C88.5121 38.6504 90.5612 37.2382 90.5612 33.802V25.4408H88.5979V26.1949ZM86.229 32.6361C84.8015 32.6361 83.6066 31.4551 83.6066 29.8294C83.6066 28.1887 84.8015 26.9913 86.229 26.9913C87.6357 26.9913 88.7447 28.1887 88.7447 29.8294C88.7447 31.4551 87.6357 32.6361 86.229 32.6361ZM113.233 20.5021H108.279V34.1865H110.345V29.0015H113.233C115.527 29.0015 117.777 27.3608 117.777 24.7511C117.777 22.1429 115.522 20.5021 113.233 20.5021ZM113.287 27.098H110.345V22.4056H113.287C114.83 22.4056 115.71 23.6714 115.71 24.7511C115.71 25.8103 114.83 27.098 113.287 27.098ZM126.057 25.1316C124.564 25.1316 123.012 25.783 122.374 27.2267L124.207 27.9861C124.602 27.2267 125.327 26.9803 126.094 26.9803C127.166 26.9803 128.253 27.6167 128.269 28.7402V28.8838C127.896 28.6704 127.095 28.3543 126.111 28.3543C124.137 28.3543 122.125 29.4285 122.125 31.4332C122.125 33.267 123.742 34.4479 125.56 34.4479C126.95 34.4479 127.717 33.828 128.199 33.1068H128.269V34.1646H130.265V28.9153C130.265 26.4891 128.431 25.1316 126.057 25.1316ZM125.808 32.6306C125.132 32.6306 124.191 32.2995 124.191 31.4716C124.191 30.4124 125.365 30.006 126.381 30.006C127.291 30.006 127.717 30.2044 128.269 30.4658C128.107 31.7329 127.004 32.6306 125.808 32.6306ZM137.533 25.4313L135.159 31.3634H135.088L132.633 25.4313H130.406L134.094 33.7213L131.99 38.3343H134.148L139.832 25.4313H137.533ZM118.913 34.1865H120.984V20.5021H118.913V34.1865Z" fill="white"/>
<g id="g48">
<path id="path64" d="M12.0269 9.59688C11.7015 9.93351 11.5132 10.4576 11.5132 11.1364V35.3468C11.5132 36.0256 11.7015 36.5497 12.0269 36.8863L12.1072 36.9602L25.8336 23.399V23.0788L12.1072 9.51751L12.0269 9.59688Z" fill="white"/>
</g>
<g id="g66" opacity="0.3">
<path id="path78" d="M30.4041 27.9216L25.8337 23.3989V23.0787L30.4097 18.556L30.5121 18.6149L35.9313 21.6624C37.4778 22.5272 37.4778 23.9504 35.9313 24.8207L30.5121 27.8628L30.4041 27.9216Z" fill="white"/>
</g>
<g id="g80" opacity="0.5">
<path id="path88" d="M30.5121 27.8627L25.8337 23.2387L12.027 36.8862C12.5406 37.4199 13.3783 37.4842 14.3309 36.9505L30.5121 27.8627Z" fill="white"/>
</g>
<g id="g90" opacity="0.5">
<path id="path104" d="M30.5121 18.6151L14.3309 9.52725C13.3783 8.99903 12.5406 9.06334 12.027 9.59703L25.8337 23.239L30.5121 18.6151Z" fill="white"/>
</g>
</g>
</g>
</g>
</g>
</svg>
