<svg width="217" height="53" viewBox="0 0 217 53" fill="none" xmlns="http://www.w3.org/2000/svg">
<g id="Logotype">
<g id="Vector">
<path d="M19.6559 13.3178H19.0717V9.71L17.9003 10.1109V9.61929L19.5648 9.037H19.6559V13.3178Z" fill="#075497"/>
<path d="M28.9754 11.5007C28.9754 12.1347 28.8592 12.6058 28.6268 12.914C28.3944 13.2222 28.0311 13.3763 27.537 13.3763C27.0491 13.3763 26.688 13.2261 26.4535 12.9257C26.219 12.6234 26.0975 12.1728 26.0892 11.5739V10.8512C26.0892 10.225 26.2054 9.75974 26.4378 9.45543C26.6702 9.15112 27.0345 8.99896 27.5307 8.99896C28.0227 8.99896 28.3849 9.14624 28.6174 9.4408C28.8498 9.7334 28.9691 10.186 28.9754 10.7985V11.5007ZM28.3944 10.7605C28.3944 10.302 28.3253 9.96846 28.1871 9.75974C28.0489 9.54906 27.8301 9.44372 27.5307 9.44372C27.2334 9.44372 27.0167 9.54809 26.8806 9.75681C26.7445 9.96554 26.6744 10.2864 26.6702 10.7195V11.5856C26.6702 12.046 26.7414 12.3864 26.8837 12.6068C27.0282 12.8253 27.2459 12.9345 27.537 12.9345C27.8238 12.9345 28.0363 12.8311 28.1745 12.6244C28.3148 12.4176 28.3881 12.0918 28.3944 11.647V10.7605Z" fill="#075497"/>
<path d="M37.337 18.6918C37.337 19.3258 37.2208 19.7969 36.9884 20.1051C36.756 20.4133 36.3927 20.5674 35.8986 20.5674C35.4107 20.5674 35.0496 20.4172 34.8151 20.1168C34.5806 19.8145 34.4591 19.3638 34.4507 18.765V18.0422C34.4507 17.4161 34.5669 16.9508 34.7994 16.6465C35.0318 16.3422 35.3961 16.19 35.8923 16.19C36.3843 16.19 36.7465 16.3373 36.979 16.6319C37.2114 16.9245 37.3307 17.3771 37.337 17.9896V18.6918ZM36.756 17.9515C36.756 17.4931 36.6869 17.1596 36.5487 16.9508C36.4105 16.7401 36.1917 16.6348 35.8923 16.6348C35.595 16.6348 35.3783 16.7392 35.2422 16.9479C35.1061 17.1566 35.0359 17.4775 35.0318 17.9106V18.7767C35.0318 19.2371 35.1029 19.5775 35.2453 19.7979C35.3898 20.0164 35.6075 20.1256 35.8986 20.1256C36.1854 20.1256 36.3979 20.0222 36.5361 19.8154C36.6764 19.6087 36.7497 19.2829 36.756 18.8381V17.9515Z" fill="#075497"/>
<path d="M36.3791 13.3178H35.7949V9.71L34.6235 10.1109V9.61929L36.288 9.037H36.3791V13.3178Z" fill="#075497"/>
<path d="M44.7407 13.3178H44.1565V9.71L42.9851 10.1109V9.61929L44.6496 9.037H44.7407V13.3178Z" fill="#075497"/>
<path d="M44.7407 20.5089H44.1565V16.9011L42.9851 17.302V16.8104L44.6496 16.2281H44.7407V20.5089Z" fill="#075497"/>
<path d="M4.21911 46.8762H3.63496V43.2684L2.4635 43.6693V43.1777L4.12803 42.5954H4.21911V46.8762Z" fill="#075497"/>
<path d="M13.5386 45.0592C13.5386 45.6931 13.4224 46.1642 13.19 46.4724C12.9576 46.7806 12.5943 46.9348 12.1002 46.9348C11.6123 46.9348 11.2512 46.7845 11.0167 46.4841C10.7822 46.1818 10.6607 45.7312 10.6524 45.1323V44.4096C10.6524 43.7834 10.7686 43.3181 11.001 43.0138C11.2334 42.7095 11.5977 42.5574 12.0939 42.5574C12.5859 42.5574 12.9482 42.7046 13.1806 42.9992C13.413 43.2918 13.5323 43.7444 13.5386 44.3569V45.0592ZM12.9576 44.3189C12.9576 43.8604 12.8885 43.5269 12.7503 43.3181C12.6121 43.1075 12.3933 43.0021 12.0939 43.0021C11.7966 43.0021 11.5799 43.1065 11.4438 43.3152C11.3077 43.5239 11.2376 43.8448 11.2334 44.2779V45.144C11.2334 45.6044 11.3046 45.9448 11.4469 46.1652C11.5914 46.3837 11.8092 46.4929 12.1002 46.4929C12.387 46.4929 12.5996 46.3895 12.7377 46.1828C12.878 45.976 12.9513 45.6502 12.9576 45.2055V44.3189Z" fill="#075497"/>
<path d="M5.177 37.8681C5.177 38.502 5.0608 38.9731 4.82839 39.2814C4.59599 39.5896 4.23272 39.7437 3.7386 39.7437C3.25075 39.7437 2.88958 39.5935 2.65508 39.2931C2.42058 38.9907 2.29915 38.5401 2.29077 37.9412V37.2185C2.29077 36.5923 2.40697 36.1271 2.63938 35.8227C2.87179 35.5184 3.2361 35.3663 3.73232 35.3663C4.22435 35.3663 4.58657 35.5136 4.81897 35.8081C5.05138 36.1007 5.17072 36.5533 5.177 37.1658V37.8681ZM4.59599 37.1278C4.59599 36.6694 4.52689 36.3358 4.38871 36.1271C4.25052 35.9164 4.03172 35.811 3.73232 35.811C3.435 35.811 3.2183 35.9154 3.08221 36.1241C2.94611 36.3329 2.87597 36.6537 2.87179 37.0868V37.9529C2.87179 38.4133 2.94297 38.7537 3.08535 38.9741C3.22982 39.1926 3.44757 39.3018 3.7386 39.3018C4.02544 39.3018 4.23796 39.1984 4.37614 38.9917C4.51642 38.7849 4.58971 38.4591 4.59599 38.0144V37.1278Z" fill="#075497"/>
<path d="M20.9423 46.8762H20.3581V43.2684L19.1867 43.6693V43.1777L20.8512 42.5954H20.9423V46.8762Z" fill="#075497"/>
<path d="M29.3039 46.8762H28.7197V43.2684L27.5483 43.6693V43.1777L29.2128 42.5954H29.3039V46.8762Z" fill="#075497"/>
<path d="M12.5807 39.6851H11.9966V36.0773L10.8251 36.4782V35.9866L12.4896 35.4043H12.5807V39.6851Z" fill="#075497"/>
<path fill-rule="evenodd" clip-rule="evenodd" d="M17.8982 16.9134C18.0617 16.9134 18.3886 17.0055 18.3886 17.3741V38.3369C18.3886 38.4137 18.2415 38.5673 17.653 38.5673H23.7825C23.6191 38.5673 23.2922 38.5212 23.2922 38.3369V32.5779H26.7247C30.6476 32.5779 31.3831 28.8921 31.3831 26.8189V21.9813C31.3831 17.927 28.441 16.9134 26.9699 16.9134H17.8982ZM23.2922 27.9707V21.5206H25.744C25.9074 21.5206 26.2343 21.7049 26.2343 22.442V27.2796C26.2343 27.51 26.0872 27.9707 25.4988 27.9707H23.2922Z" fill="#075497"/>
<path d="M33.5896 44.5598C33.7531 44.5598 34.08 44.4677 34.08 44.0991V23.3667C34.08 22.9981 33.5896 22.9059 33.3445 22.9059H39.474C39.3105 22.9059 38.9836 22.9981 38.9836 23.3667V39.9526H41.9258V23.3667C41.9258 23.2131 41.8277 22.9059 41.4354 22.9059H47.5649C47.4014 22.9059 47.0745 22.9981 47.0745 23.3667V39.9526H49.036C49.5263 39.9526 49.5263 39.9526 49.5263 40.4134V47.0938C49.5263 47.5545 49.2812 47.5545 48.7908 47.3242C48.5947 47.1399 46.4207 45.4045 45.3583 44.5598H33.5896Z" fill="#075497"/>
<path d="M0.24518 32.5747C0.408633 32.5747 0.73554 32.4826 0.73554 32.114V11.3815C0.73554 11.0129 0.24518 10.9208 0 10.9208H6.1295C5.96605 10.9208 5.63914 11.0129 5.63914 11.3815V27.9675H8.5813V11.3815C8.5813 11.2279 8.48323 10.9208 8.09094 10.9208H14.2204C14.057 10.9208 13.7301 11.0129 13.7301 11.3815V27.9675H15.6915C16.1819 27.9675 16.1819 27.9675 16.1819 28.4282V35.1087C16.1819 35.5694 15.9367 35.5694 15.4463 35.339C15.2502 35.1547 13.0763 33.4194 12.0138 32.5747H0.24518Z" fill="#075497"/>
</g>
<g id="Vector_2">
<path d="M115.492 21.3531H117.556C118.376 21.3531 119.113 21.2286 119.769 20.9787C120.425 20.7282 120.981 20.3788 121.44 19.9269C121.899 19.4749 122.251 18.9287 122.497 18.2908C122.744 17.6524 122.867 16.9437 122.867 16.1632C122.867 15.2743 122.731 14.5068 122.461 13.8601C122.191 13.2128 121.813 12.6807 121.33 12.2589C120.846 11.8392 120.264 11.5273 119.584 11.3247C118.904 11.1216 118.161 11.0191 117.359 11.0191H111.926V27.2881H115.492V21.3531ZM126.775 25.7817C127.218 26.2899 127.786 26.6888 128.483 26.9861C129.18 27.2829 130.02 27.4313 131.003 27.4313C131.807 27.4313 132.54 27.309 133.203 27.0684C133.867 26.8263 134.441 26.4748 134.925 26.0155C135.407 25.5563 135.785 25.0027 136.055 24.3555C136.326 23.7093 136.461 22.9813 136.461 22.1701V16.1168C136.461 15.4774 136.351 14.8463 136.129 14.222C135.907 13.5992 135.575 13.0425 135.133 12.5505C134.691 12.0594 134.124 11.6627 133.437 11.3607C132.748 11.0571 131.936 10.9045 131.003 10.9045C130.003 10.9045 129.155 11.0618 128.459 11.3825C127.761 11.7022 127.193 12.1094 126.75 12.6104C126.308 13.1087 125.989 13.6664 125.791 14.2808C125.595 14.8958 125.496 15.5081 125.496 16.1168V21.9129C125.496 22.6471 125.598 23.3474 125.804 24.0176C126.009 24.6877 126.332 25.2751 126.775 25.7817ZM129.036 15.9752C129.036 15.7893 129.073 15.5899 129.146 15.3795C129.221 15.1686 129.335 14.9749 129.491 14.7947C129.646 14.6172 129.848 14.4683 130.094 14.3495C130.339 14.2339 130.642 14.1772 131.003 14.1772C131.363 14.1772 131.663 14.2428 131.901 14.375C132.138 14.5068 132.331 14.6666 132.478 14.8531C132.626 15.04 132.728 15.2358 132.785 15.4373C132.843 15.6419 132.871 15.8216 132.871 15.9752V22.4044C132.871 22.9496 132.688 23.3766 132.318 23.69C131.949 24.0019 131.51 24.1571 131.003 24.1571C130.297 24.1571 129.794 23.9556 129.491 23.551C129.188 23.1449 129.036 22.6288 129.036 22.0076V15.9752ZM141.168 25.7817C141.602 26.2894 142.167 26.6898 142.864 26.9861C143.561 27.2819 144.4 27.4303 145.384 27.4303C146.777 27.4303 147.957 27.0721 148.923 26.3545C149.891 25.638 150.497 24.6492 150.743 23.3859L147.35 22.4497C147.285 22.9813 147.063 23.3969 146.687 23.6999C146.31 24.0056 145.875 24.1561 145.384 24.1561C144.68 24.1561 144.183 23.9556 143.897 23.551C143.61 23.1454 143.467 22.6288 143.467 22.0076V15.9747C143.467 15.7888 143.499 15.5899 143.564 15.3805C143.63 15.1686 143.736 14.9739 143.884 14.7947C144.032 14.6172 144.229 14.4677 144.475 14.3495C144.72 14.2339 145.023 14.1761 145.384 14.1761C145.729 14.1761 146.023 14.2381 146.269 14.3636C146.515 14.4875 146.719 14.6359 146.884 14.8057C147.047 14.9796 147.166 15.1686 147.241 15.3805C147.314 15.5899 147.366 15.7747 147.401 15.9294L150.767 14.9697C150.653 14.4412 150.456 13.9298 150.177 13.4388C149.899 12.9478 149.538 12.5145 149.095 12.1422C148.654 11.7673 148.121 11.4684 147.499 11.2425C146.875 11.0159 146.171 10.904 145.384 10.904C144.384 10.904 143.535 11.0623 142.84 11.3815C142.143 11.7017 141.577 12.1094 141.144 12.6104C140.709 13.1087 140.394 13.6653 140.196 14.2818C140.001 14.8958 139.902 15.5081 139.902 16.1158V21.9134C139.902 22.6465 140.005 23.3464 140.209 24.017C140.413 24.6877 140.734 25.2751 141.168 25.7817ZM155.033 25.7817C155.467 26.2894 156.032 26.6898 156.729 26.9861C157.426 27.2819 158.265 27.4303 159.249 27.4303C160.641 27.4303 161.821 27.0721 162.788 26.3545C163.756 25.638 164.362 24.6492 164.608 23.3859L161.215 22.4497C161.15 22.9813 160.928 23.3969 160.552 23.6999C160.175 24.0056 159.74 24.1561 159.249 24.1561C158.544 24.1561 158.048 23.9556 157.761 23.551C157.475 23.1454 157.331 22.6288 157.331 22.0076V15.9747C157.331 15.7888 157.364 15.5899 157.429 15.3805C157.494 15.1686 157.601 14.9739 157.749 14.7947C157.896 14.6172 158.094 14.4677 158.339 14.3495C158.584 14.2339 158.888 14.1761 159.249 14.1761C159.592 14.1761 159.888 14.2381 160.133 14.3636C160.379 14.4875 160.584 14.6359 160.749 14.8057C160.912 14.9796 161.031 15.1686 161.104 15.3805C161.179 15.5899 161.231 15.7747 161.264 15.9294L164.631 14.9697C164.518 14.4412 164.32 13.9298 164.043 13.4388C163.763 12.9478 163.403 12.5145 162.961 12.1422C162.518 11.7673 161.986 11.4684 161.363 11.2425C160.74 11.0159 160.036 10.904 159.249 10.904C158.248 10.904 157.4 11.0623 156.704 11.3815C156.007 11.7017 155.442 12.1094 155.008 12.6104C154.573 13.1087 154.258 13.6653 154.061 14.2818C153.864 14.8958 153.766 15.5081 153.766 16.1158V21.9134C153.766 22.6465 153.868 23.3464 154.074 24.017C154.278 24.6877 154.598 25.2751 155.033 25.7817ZM168.025 27.2881H177.981V24.0889H171.588V20.6288H177.095V17.5175H171.588V14.1527H177.981V11.0191H168.025V27.2881ZM179.946 14.1048H183.609V27.2881H187.149V14.1048H190.812V11.0191H179.946V14.1048ZM197.301 20.4642H197.253V11.0201H193.713V27.2871H197.056L201.826 18.4309H201.85V27.2871H205.414V11.0201H202.193L197.301 20.4642ZM85.048 17.2244L65.6131 16.2532C63.3405 19.428 62.0082 23.262 62 27.3892V27.5329C62.006 28.616 62.1073 29.6756 62.288 30.7097L85.2095 17.8992C85.123 17.6862 85.0754 17.4582 85.048 17.2244ZM87.1426 19.5311L74.959 45.8265C77.4139 46.7882 80.1021 47.3214 82.9206 47.3214C85.6805 47.3214 88.3133 46.8096 90.725 45.8848L87.6978 19.6108C87.5067 19.6014 87.3211 19.5754 87.1426 19.5311ZM85.7719 18.7521L62.8674 33.0988C64.4352 38.1189 68.0296 42.3096 72.7499 44.8127L86.1947 19.1135C86.0408 19.0073 85.9001 18.886 85.7719 18.7521ZM86.0715 14.8515L81.6934 7.57144H81.6868C75.9939 7.88699 70.9122 10.3666 67.338 14.1574L85.1389 16.1861C85.3015 15.6508 85.6312 15.1915 86.0715 14.8515ZM90.1856 18.4387L103.588 30.5197C103.753 29.5126 103.84 28.4801 103.84 27.4282C103.84 23.16 102.422 19.2093 100.016 15.9689L90.6691 17.0426C90.6467 17.5602 90.4725 18.0382 90.1856 18.4387ZM87.9087 14.2397C89.063 14.2631 90.0372 14.9426 90.4555 15.8966L98.4429 14.0933C94.8917 10.3588 89.8734 7.91459 84.2507 7.57925L87.199 14.3214C87.4284 14.2693 87.6628 14.2355 87.9087 14.2397ZM88.741 19.4733L93.0293 44.8455C97.7956 42.3398 101.42 38.1158 102.987 33.0535L89.4124 19.1677C89.2076 19.2978 88.9803 19.3963 88.741 19.4733ZM115.492 14.1537H117.359C117.982 14.1537 118.474 14.3042 118.834 14.6078C119.195 14.9119 119.375 15.4149 119.375 16.1168C119.375 16.8807 119.175 17.416 118.774 17.7295C118.372 18.0419 117.908 18.196 117.385 18.196H115.492V14.1537Z" fill="#075497"/>
<path d="M115.651 41.6851C115.59 41.9944 115.445 42.237 115.216 42.4125C114.987 42.5885 114.71 42.676 114.384 42.676C114.165 42.676 113.973 42.6406 113.811 42.5692C113.647 42.4984 113.511 42.4005 113.402 42.2745C113.291 42.1495 113.21 42.0027 113.157 41.8356C113.105 41.6684 113.078 41.4929 113.078 41.3086V37.8339C113.078 37.6829 113.105 37.5324 113.157 37.3819C113.21 37.2314 113.29 37.096 113.395 36.9742C113.501 36.8534 113.634 36.755 113.797 36.6795C113.96 36.6045 114.156 36.5665 114.384 36.5665C114.578 36.5665 114.75 36.5962 114.899 36.6545C115.049 36.7128 115.176 36.7909 115.281 36.8862C115.387 36.9831 115.471 37.0893 115.532 37.2064C115.594 37.3236 115.638 37.4449 115.664 37.5704L117.102 37.1184C116.953 36.5665 116.647 36.1067 116.185 35.7386C115.723 35.3709 115.123 35.1866 114.384 35.1866C113.901 35.1866 113.483 35.2621 113.131 35.4126C112.779 35.5631 112.486 35.7635 112.254 36.0145C112.02 36.2655 111.847 36.554 111.732 36.8799C111.619 37.2064 111.561 37.5413 111.561 37.8839V41.2711C111.561 41.6642 111.619 42.0298 111.732 42.3688C111.847 42.7077 112.023 43.0025 112.26 43.2534C112.498 43.5044 112.793 43.7007 113.144 43.8434C113.496 43.9851 113.91 44.0564 114.384 44.0564C115.071 44.0564 115.655 43.8866 116.14 43.5482C116.623 43.2092 116.94 42.7348 117.089 42.124L115.651 41.6851ZM123.765 43.9809V42.626H120.163V40.2172H123.263V38.9128H120.163V36.579H123.765V35.2496H118.659V43.9809H123.765ZM130.777 40.7754C130.729 40.5707 130.654 40.3807 130.552 40.2047C130.452 40.0292 130.322 39.8766 130.163 39.7465C130.005 39.6173 129.816 39.5189 129.596 39.4517V39.3893C130.018 39.2054 130.311 38.9586 130.474 38.6493C130.636 38.3395 130.717 38.001 130.717 37.6329C130.717 36.8971 130.5 36.3155 130.064 35.889C129.629 35.4626 128.976 35.2496 128.105 35.2496H125.295V43.9809H128.25C129.042 43.9809 129.673 43.7591 130.143 43.3159C130.614 42.8728 130.849 42.2329 130.849 41.3966C130.849 41.1873 130.825 40.9805 130.777 40.7754ZM128.943 38.5176C128.745 38.7306 128.43 38.8373 127.999 38.8373H126.799V36.554H127.986C128.426 36.554 128.745 36.6545 128.943 36.8555C129.141 37.056 129.24 37.3319 129.24 37.6829C129.24 38.026 129.141 38.3041 128.943 38.5176ZM129.313 41.8194C129.273 41.9787 129.204 42.1193 129.108 42.2417C129.011 42.3636 128.883 42.4578 128.725 42.525C128.567 42.5927 128.369 42.626 128.131 42.626H126.799V40.0797H128.118C128.567 40.0797 128.888 40.1927 129.081 40.4197C129.275 40.6468 129.372 40.9451 129.372 41.3148C129.372 41.4914 129.352 41.6596 129.313 41.8194ZM137.71 43.9809V42.626H134.108V40.2172H137.208V38.9128H134.108V36.579H137.71V35.2496H132.604V43.9809H137.71ZM144.623 36.7482C144.492 36.4097 144.302 36.1301 144.056 35.9078C143.809 35.6865 143.515 35.5214 143.172 35.4126C142.829 35.3038 142.442 35.2496 142.011 35.2496H139.24V43.9809H140.744V40.6317H142.09C142.547 40.6317 142.947 40.5619 143.291 40.4244C143.633 40.2859 143.917 40.0959 144.141 39.8532C144.366 39.6111 144.535 39.3268 144.65 39.0003C144.764 38.6743 144.821 38.3228 144.821 37.9464C144.821 37.4866 144.755 37.0872 144.623 36.7482ZM143.006 38.9081C142.791 39.1539 142.459 39.2768 142.011 39.2768H140.744V36.579H141.997C142.446 36.579 142.78 36.6935 143 36.9226C143.22 37.1518 143.33 37.4824 143.33 37.9151C143.33 38.3317 143.222 38.6629 143.006 38.9081ZM151.853 43.9809V35.2496H150.349V38.9128H147.763V35.2496H146.246V43.9809H147.763V40.2047H150.349V43.9809H151.853ZM156.761 43.9809C157.622 43.9809 158.299 43.7554 158.793 43.3034C159.284 42.852 159.531 42.1787 159.531 41.2836C159.531 40.9071 159.479 40.5619 159.373 40.2484C159.267 39.935 159.102 39.6637 158.878 39.433C158.654 39.2034 158.368 39.0258 158.021 38.8998C157.673 38.7748 157.257 38.7118 156.774 38.7118H155.428V35.2496H153.924V43.9809H156.761ZM155.428 42.651V40.0417H156.695C157.17 40.0417 157.51 40.1568 157.717 40.3864C157.924 40.6171 158.027 40.928 158.027 41.3211C158.027 41.7309 157.922 42.0548 157.711 42.2933C157.499 42.5317 157.165 42.651 156.708 42.651H155.428ZM161.814 35.2496H160.31V43.9814H161.814V35.2496ZM165.257 43.9809L167.421 39.9662C167.57 39.6902 167.719 39.4101 167.87 39.1258C168.018 38.8415 168.168 38.5613 168.318 38.2853H168.345V43.9809H169.848V35.2496H168.45C168.124 35.8765 167.799 36.4957 167.474 37.1059C167.148 37.7167 166.818 38.3317 166.484 38.9503C166.3 39.3096 166.117 39.6694 165.937 40.0292C165.757 40.389 165.565 40.7483 165.363 41.1081C165.354 41.1081 165.347 41.106 165.343 41.1014C165.338 41.0977 165.332 41.0956 165.323 41.0956V35.2496H163.832V43.9809H165.257ZM167.764 34.5092C168.01 34.3837 168.208 34.229 168.358 34.0452C168.507 33.8609 168.619 33.6604 168.694 33.4427C168.768 33.2251 168.814 33.0246 168.833 32.8408H167.711C167.711 32.9324 167.693 33.0272 167.658 33.1225C167.623 33.2194 167.57 33.3089 167.5 33.3928C167.429 33.4761 167.342 33.5453 167.236 33.5995C167.131 33.6542 167.007 33.6812 166.867 33.6812C166.735 33.6812 166.618 33.6542 166.517 33.5995C166.416 33.5453 166.328 33.4761 166.253 33.3928C166.178 33.3089 166.121 33.2194 166.081 33.1225C166.042 33.0272 166.018 32.9324 166.009 32.8408H164.874C164.883 33.0246 164.923 33.2251 164.993 33.4427C165.063 33.6604 165.176 33.8609 165.329 34.0452C165.483 34.229 165.686 34.3837 165.937 34.5092C166.188 34.6346 166.497 34.6977 166.867 34.6977C167.218 34.6977 167.517 34.6346 167.764 34.5092ZM176.761 43.9809V40.1922H177.553C177.887 40.1922 178.177 40.2781 178.424 40.4489C178.67 40.6213 178.863 40.9701 179.004 41.4971L179.651 43.9809H181.194L180.429 41.1331C180.323 40.6983 180.169 40.3406 179.967 40.0605C179.765 39.7803 179.479 39.5814 179.109 39.4648C179.391 39.3726 179.637 39.1867 179.849 38.906C180.06 38.6264 180.223 38.2729 180.336 37.8464L181.049 35.2746H179.598L178.925 37.6709C178.854 37.9302 178.764 38.1406 178.654 38.3041C178.544 38.4671 178.425 38.5926 178.298 38.68C178.17 38.768 178.037 38.829 177.896 38.8623C177.756 38.8961 177.619 38.9128 177.487 38.9128H176.761V35.2496H175.244V43.9809H176.761ZM187.012 43.9809H188.609L185.944 35.2496H184.492L181.841 43.9809H183.411C183.438 43.9059 183.474 43.7799 183.522 43.6049C183.571 43.4289 183.624 43.2409 183.681 43.04C183.738 42.8395 183.793 42.651 183.846 42.4755C183.899 42.3 183.934 42.1745 183.952 42.099H186.498L187.012 43.9809ZM185.192 37.2314H185.258C185.266 37.3069 185.292 37.4303 185.337 37.6017C185.38 37.7735 185.426 37.9547 185.475 38.1474C185.523 38.3395 185.567 38.5238 185.607 38.6993C185.647 38.8753 185.676 39.0003 185.693 39.0758L186.155 40.8196H184.282L184.757 39.0633L185.192 37.2314ZM195.41 40.7754C195.362 40.5707 195.287 40.3807 195.186 40.2047C195.084 40.0292 194.954 39.8766 194.796 39.7465C194.638 39.6173 194.449 39.5189 194.229 39.4517V39.3893C194.651 39.2054 194.943 38.9586 195.106 38.6493C195.269 38.3395 195.35 38.001 195.35 37.6329C195.35 36.8971 195.133 36.3155 194.697 35.889C194.262 35.4626 193.609 35.2496 192.738 35.2496H189.928V43.9809H192.883C193.674 43.9809 194.306 43.7591 194.777 43.3159C195.247 42.8728 195.482 42.2329 195.482 41.3966C195.482 41.1873 195.458 40.9805 195.41 40.7754ZM193.576 38.5176C193.378 38.7306 193.063 38.8373 192.632 38.8373H191.431V36.554H192.619C193.059 36.554 193.378 36.6545 193.576 36.8555C193.774 37.056 193.872 37.3319 193.872 37.6829C193.872 38.026 193.774 38.3041 193.576 38.5176ZM193.945 41.8194C193.906 41.9787 193.838 42.1193 193.741 42.2417C193.644 42.3636 193.516 42.4578 193.358 42.525C193.2 42.5927 193.001 42.626 192.764 42.626H191.431V40.0797H192.751C193.2 40.0797 193.521 40.1927 193.714 40.4197C193.908 40.6468 194.004 40.9451 194.004 41.3148C194.004 41.4914 193.985 41.6596 193.945 41.8194ZM198.727 43.9809V40.1922H199.519C199.854 40.1922 200.143 40.2781 200.39 40.4489C200.636 40.6213 200.829 40.9701 200.97 41.4971L201.617 43.9809H203.16L202.395 41.1331C202.29 40.6983 202.136 40.3406 201.933 40.0605C201.731 39.7803 201.445 39.5814 201.076 39.4648C201.357 39.3726 201.604 39.1867 201.814 38.906C202.026 38.6264 202.188 38.2729 202.303 37.8464L203.016 35.2746H201.564L200.891 37.6709C200.821 37.9302 200.731 38.1406 200.621 38.3041C200.511 38.4671 200.392 38.5926 200.265 38.68C200.137 38.768 200.003 38.829 199.862 38.8623C199.722 38.8961 199.585 38.9128 199.453 38.9128H198.727V35.2496H197.21V43.9809H198.727ZM208.979 43.9809H210.575L207.91 35.2496H206.459L203.807 43.9809H205.377C205.403 43.9059 205.44 43.7799 205.489 43.6049C205.537 43.4289 205.59 43.2409 205.647 43.04C205.705 42.8395 205.759 42.651 205.812 42.4755C205.865 42.3 205.9 42.1745 205.918 42.099H208.465L208.979 43.9809ZM207.158 37.2314H207.224C207.233 37.3069 207.259 37.4303 207.304 37.6017C207.347 37.7735 207.393 37.9547 207.442 38.1474C207.49 38.3395 207.534 38.5238 207.574 38.6993C207.613 38.8753 207.642 39.0003 207.66 39.0758L208.121 40.8196H206.248L206.723 39.0633L207.158 37.2314ZM212.283 43.5242C212.781 43.8793 213.407 44.0564 214.163 44.0564C214.585 44.0564 214.971 43.9996 215.318 43.8866C215.665 43.7736 215.964 43.607 216.215 43.3847C216.466 43.1634 216.659 42.8895 216.796 42.5635C216.932 42.237 217 41.8569 217 41.4216C217 41.2378 216.985 41.0477 216.954 40.8504C216.923 40.6546 216.864 40.464 216.775 40.2802C216.687 40.0959 216.571 39.9313 216.426 39.785C216.281 39.6382 216.098 39.5231 215.879 39.4398V39.3893C216.09 39.3059 216.263 39.1867 216.4 39.0315C216.536 38.8774 216.641 38.7102 216.716 38.5296C216.791 38.3504 216.843 38.1682 216.875 37.9844C216.906 37.8006 216.921 37.6371 216.921 37.4949C216.921 36.7342 216.692 36.1567 216.234 35.7635C215.777 35.3709 215.122 35.1741 214.269 35.1741C213.521 35.1741 212.908 35.3501 212.429 35.7026C211.949 36.0546 211.635 36.5311 211.485 37.1309L212.871 37.6079C212.958 37.2903 213.119 37.031 213.352 36.83C213.585 36.6295 213.881 36.529 214.242 36.529C214.611 36.529 214.898 36.6279 215.1 36.8253C215.302 37.0231 215.404 37.2814 215.404 37.6017C215.404 37.9964 215.298 38.2994 215.087 38.5093C214.876 38.7196 214.585 38.8248 214.216 38.8248H213.49V40.0417H214.203C214.441 40.0417 214.638 40.0771 214.796 40.1479C214.955 40.2187 215.082 40.3146 215.179 40.4354C215.276 40.5562 215.344 40.6957 215.383 40.8535C215.423 41.0113 215.443 41.1821 215.443 41.3648C215.443 41.7731 215.331 42.0975 215.107 42.3391C214.882 42.5812 214.572 42.7015 214.176 42.7015C213.824 42.7015 213.521 42.6031 213.266 42.4063C213.011 42.2099 212.849 41.9319 212.778 41.5721C212.699 41.5976 212.596 41.6309 212.468 41.6726C212.34 41.7142 212.206 41.7585 212.066 41.8043C211.925 41.8507 211.791 41.8918 211.664 41.9298C211.535 41.9673 211.433 41.9991 211.353 42.0241C211.476 42.6697 211.786 43.1701 212.283 43.5242Z" fill="#075497"/>
</g>
</g>
</svg>
