<svg width="16" height="16" viewBox="0 0 16 16" fill="none" xmlns="http://www.w3.org/2000/svg">
<g clip-path="url(#clip0_2305_3169)">
<path d="M10.1904 10.7739C10.1905 10.7738 10.1906 10.7737 10.1906 10.7736L10.3382 10.6246L10.3385 10.6244L10.3556 10.607C10.7524 10.2044 11.1657 9.78508 11.7432 9.69324C12.3364 9.59891 13.0545 9.85288 14.058 10.6596C14.7462 11.2127 15.1237 11.7771 15.1489 12.3869L15.1489 12.387C15.167 12.827 14.9997 13.207 14.765 13.538C14.5331 13.8651 14.2271 14.1555 13.952 14.4166L13.9479 14.4205C13.9361 14.4318 13.9244 14.443 13.9127 14.4542C13.8331 14.53 13.757 14.6025 13.6855 14.6736L13.5798 14.5672M10.1904 10.7739L1.32799 2.31362C0.998872 2.6425 0.849636 3.14993 0.850246 3.75228C0.850858 4.35709 1.00199 5.0774 1.297 5.85972L1.29701 5.85974C1.94632 7.58073 3.22424 9.44403 4.89029 11.1101C6.55584 12.7756 8.41867 14.0535 10.1397 14.7024C10.9246 14.9986 11.6465 15.15 12.2523 15.15C12.8527 15.15 13.3589 15.0007 13.6859 14.6732L13.5798 14.5672M10.1904 10.7739C10.1652 10.7989 10.1247 10.8171 10.0544 10.8173C9.98217 10.8175 9.89167 10.7983 9.78823 10.7616C9.58184 10.6885 9.35922 10.5589 9.19416 10.4516C8.67308 10.1129 8.01348 9.5479 7.23273 8.76716C6.03601 7.57044 5.51568 6.82737 5.30852 6.37677C5.20535 6.15237 5.18447 6.01029 5.18872 5.92654C5.19273 5.84752 5.21897 5.81754 5.22657 5.80989C5.22663 5.80984 5.22668 5.80979 5.22673 5.80973L5.37331 5.66457C5.37336 5.66452 5.37341 5.66446 5.37346 5.66441C5.37961 5.65836 5.38576 5.6523 5.39192 5.64624C5.79504 5.24937 6.21492 4.83602 6.30739 4.25869C6.40246 3.66517 6.14865 2.94663 5.34116 1.94238C4.78817 1.25428 4.22325 0.876237 3.61437 0.851021V0.851018L3.61351 0.850988C3.17377 0.835301 2.79444 1.00215 2.46363 1.23613C2.13526 1.46837 1.84386 1.77482 1.58146 2.05078L1.58105 2.05121L1.58094 2.05132L1.57319 2.05949C1.4881 2.14916 1.4073 2.23431 1.32803 2.31357C1.32803 2.31358 1.32802 2.31359 1.32801 2.31359L10.1904 10.7739ZM13.5798 14.5672C13.2921 14.8554 12.832 15 12.2523 15C11.6698 15 10.9663 14.854 10.1926 14.562L13.8444 14.312C13.8326 14.3232 13.8209 14.3344 13.8092 14.3455C13.7297 14.4213 13.6524 14.495 13.5798 14.5672ZM2.13987 2.58236L2.13988 2.58234C2.36657 2.34379 2.59763 2.10109 2.83983 1.91685C3.08253 1.73223 3.31813 1.62084 3.55166 1.62084C3.56423 1.62084 3.57352 1.62086 3.58231 1.62119C3.91213 1.63542 4.30239 1.88045 4.74112 2.42481C5.40555 3.25121 5.58324 3.73853 5.54204 4.09205C5.52165 4.26704 5.44609 4.42423 5.32293 4.58829C5.19781 4.75496 5.03074 4.91979 4.83324 5.11407L4.83304 5.11427L4.68282 5.2626L4.68282 5.2626L4.68203 5.26339C4.49626 5.44958 4.40476 5.68247 4.40847 5.95425C4.4121 6.22012 4.50645 6.51727 4.67737 6.84415C5.01881 7.49716 5.6898 8.31316 6.68816 9.31128C7.49737 10.1209 8.19996 10.7236 8.77447 11.0972L8.77451 11.0973C9.18797 11.366 9.56131 11.5311 9.889 11.5756C10.2236 11.6209 10.514 11.5402 10.7362 11.3177L10.7367 11.3172L10.8873 11.1651L10.8876 11.1649C11.0819 10.9679 11.2467 10.8012 11.4133 10.6764C11.5773 10.5536 11.7344 10.4783 11.9093 10.458C12.2626 10.4172 12.7497 10.595 13.5757 11.2593L13.5758 11.2594C14.1206 11.6972 14.3655 12.088 14.3792 12.4177C14.3891 12.6563 14.2812 12.8968 14.0953 13.145C13.9097 13.3928 13.6616 13.629 13.4179 13.8607C13.3229 13.9505 13.2291 14.0394 13.1413 14.1273C12.9712 14.2974 12.6342 14.3956 12.1439 14.3768C11.6616 14.3583 11.0636 14.2275 10.4124 13.9814L10.4122 13.9814C8.80189 13.3744 7.03369 12.1629 5.43581 10.5655C3.83749 8.96718 2.6259 7.19804 2.01846 5.58811C1.77286 4.93681 1.6419 4.33878 1.62332 3.85642C1.60443 3.36601 1.70252 3.02901 1.87298 2.85873L1.87304 2.85867C1.95794 2.77376 2.04397 2.68326 2.131 2.59169L2.13987 2.58236Z" fill="#075497" stroke="#075497" stroke-width="0.3"/>
</g>
<defs>
<clipPath id="clip0_2305_3169">
<rect width="16" height="16" fill="white"/>
</clipPath>
</defs>
</svg>
